<?xml version="1.0" encoding="UTF-8" standalone="no"?>
<!-- Created with Inkscape (http://www.inkscape.org/) -->

<svg
   xmlns:dc="http://purl.org/dc/elements/1.1/"
   xmlns:cc="http://creativecommons.org/ns#"
   xmlns:rdf="http://www.w3.org/1999/02/22-rdf-syntax-ns#"
   xmlns:svg="http://www.w3.org/2000/svg"
   xmlns="http://www.w3.org/2000/svg"
   xmlns:sodipodi="http://sodipodi.sourceforge.net/DTD/sodipodi-0.dtd"
   xmlns:inkscape="http://www.inkscape.org/namespaces/inkscape"
   width="300"
   height="200"
   id="svg2"
   version="1.1"
   inkscape:version="0.48.2 r9819"
   sodipodi:docname="marker-1.svg">
  <defs
     id="defs4" />
  <sodipodi:namedview
     id="base"
     pagecolor="#757575"
     bordercolor="#666666"
     borderopacity="1.0"
     inkscape:pageopacity="0.65490196"
     inkscape:pageshadow="2"
     inkscape:zoom="0.98994949"
     inkscape:cx="138.12561"
     inkscape:cy="134.28571"
     inkscape:document-units="px"
     inkscape:current-layer="layer1"
     showgrid="false"
     inkscape:window-width="1487"
     inkscape:window-height="919"
     inkscape:window-x="4"
     inkscape:window-y="0"
     inkscape:window-maximized="0" />
  <metadata
     id="metadata7">
    <rdf:RDF>
      <cc:Work
         rdf:about="">
        <dc:format>image/svg+xml</dc:format>
        <dc:type
           rdf:resource="http://purl.org/dc/dcmitype/StillImage" />
        <dc:title />
      </cc:Work>
    </rdf:RDF>
  </metadata>
  <g
     inkscape:label="Ebene 1"
     inkscape:groupmode="layer"
     id="layer1"
     transform="translate(0,-852.36218)">
    <rect
       style="color:#000000;fill:#ffffff;fill-opacity:1;fill-rule:nonzero;stroke:none;stroke-width:3;marker:none;visibility:visible;display:inline;overflow:visible;enable-background:accumulate"
       id="rect3765"
       width="134.8046"
       height="19.493128"
       x="158.00766"
       y="878.35632" />
    <path
       style="fill:none;stroke:#ffffff;stroke-width:3;stroke-linecap:butt;stroke-linejoin:miter;stroke-miterlimit:4;stroke-opacity:1;stroke-dasharray:none"
       d="M 83.137999,971.9995 161.74209,893.39601"
       id="path3755"
       inkscape:connector-curvature="0"
       sodipodi:nodetypes="cc" />
    <path
       sodipodi:type="arc"
       style="color:#000000;fill:#000000;fill-opacity:1;fill-rule:nonzero;stroke:#ffffff;stroke-width:2.52945447;stroke-miterlimit:4;stroke-opacity:1;stroke-dasharray:none;marker:none;visibility:visible;display:inline;overflow:visible;enable-background:accumulate"
       id="path2985"
       sodipodi:cx="81.25"
       sodipodi:cy="77.321426"
       sodipodi:rx="59.107143"
       sodipodi:ry="59.107143"
       d="m 140.35714,77.321426 c 0,32.643974 -26.46317,59.107144 -59.10714,59.107144 -32.643974,0 -59.107143,-26.46317 -59.107143,-59.107144 0,-32.643974 26.463169,-59.107143 59.107143,-59.107143 32.64397,0 59.10714,26.463169 59.10714,59.107143 z"
       transform="matrix(1.1860311,0,0,1.186022,-11.882293,878.14757)" />
    <rect
       y="862.35632"
       x="158.00766"
       height="19.493128"
       width="99.090309"
       id="rect3767"
       style="color:#000000;fill:#ffffff;fill-opacity:1;fill-rule:nonzero;stroke:none;stroke-width:3;marker:none;visibility:visible;display:inline;overflow:visible;enable-background:accumulate" />
    <g
       style="font-size:40px;font-style:normal;font-variant:normal;font-weight:normal;font-stretch:normal;text-align:center;line-height:125%;letter-spacing:0px;word-spacing:0px;text-anchor:middle;fill:#000000;fill-opacity:1;stroke:none;font-family:Monospace;-inkscape-font-specification:Monospace"
       id="text3757">
      <path
         d="m 168.68194,875.455 0,-6.672 -0.888,0 c -0.504,0.276 -1.092,0.468 -1.92,0.6 l 0,0.744 1.62,0 0,5.328 -2.124,0 0,0.972 5.232,0 0,-0.972 -1.92,0"
         style="font-size:12px;font-weight:500;text-align:start;line-height:125%;writing-mode:lr-tb;text-anchor:start;font-family:Source Code Pro;-inkscape-font-specification:Source Code Pro Medium"
         id="path4062" />
      <path
         d="m 174.80926,872.611 c -0.96,0 -1.5,-0.516 -1.5,-1.488 0,-0.972 0.672,-1.56 1.5,-1.56 0.98399,0 1.656,0.672 1.812,2.088 -0.6,0.696 -1.26,0.96 -1.812,0.96 m -2.472,3.12 c 0.504,0.468 1.236,0.84 2.208,0.84 1.66799,0 3.228,-1.212 3.228,-4.224 0,-2.52 -1.33201,-3.708 -2.976,-3.708 -1.392,0 -2.604,0.984 -2.604,2.484 0,1.584 0.984,2.364 2.376,2.364 0.72,0 1.488,-0.36 2.088,-0.96 -0.048,2.28 -1.05601,3.072 -2.196,3.072 -0.564,0 -1.104,-0.24 -1.476,-0.6 l -0.648,0.732"
         style="font-size:12px;font-weight:500;text-align:start;line-height:125%;writing-mode:lr-tb;text-anchor:start;font-family:Source Code Pro;-inkscape-font-specification:Source Code Pro Medium"
         id="path4064" />
      <path
         d="m 179.46057,876.427 5.472,0 0,-1.008 -2.34,0 c -0.432,0 -0.948,0.036 -1.404,0.072 1.92,-1.74 3.336,-3.156 3.336,-4.56 0,-1.38 -0.996,-2.292 -2.544,-2.292 -1.104,0 -1.86,0.444 -2.58,1.176 l 0.672,0.66 c 0.468,-0.48 1.068,-0.888 1.752,-0.888 1.044,0 1.56,0.564 1.56,1.404 0,1.236 -1.428,2.568 -3.924,4.74 l 0,0.696"
         style="font-size:12px;font-weight:500;text-align:start;line-height:125%;writing-mode:lr-tb;text-anchor:start;font-family:Source Code Pro;-inkscape-font-specification:Source Code Pro Medium"
         id="path4066" />
      <path
         d="m 188.34788,875.455 c 0,0.66 0.468,1.116 1.08,1.116 0.612,0 1.08,-0.456 1.08,-1.116 0,-0.648 -0.468,-1.116 -1.08,-1.116 -0.612,0 -1.08,0.468 -1.08,1.116"
         style="font-size:12px;font-weight:500;text-align:start;line-height:125%;writing-mode:lr-tb;text-anchor:start;font-family:Source Code Pro;-inkscape-font-specification:Source Code Pro Medium"
         id="path4068" />
      <path
         d="m 197.46319,875.455 0,-6.672 -0.888,0 c -0.504,0.276 -1.092,0.468 -1.92,0.6 l 0,0.744 1.62,0 0,5.328 -2.124,0 0,0.972 5.232,0 0,-0.972 -1.92,0"
         style="font-size:12px;font-weight:500;text-align:start;line-height:125%;writing-mode:lr-tb;text-anchor:start;font-family:Source Code Pro;-inkscape-font-specification:Source Code Pro Medium"
         id="path4070" />
      <path
         d="m 204.04651,875.647 c -0.984,0 -1.656,-0.672 -1.812,-2.088 0.6,-0.696 1.26,-0.96 1.812,-0.96 0.95999,0 1.5,0.516 1.5,1.488 0,0.972 -0.672,1.56 -1.5,1.56 m 2.484,-6.168 c -0.516,-0.468 -1.24801,-0.84 -2.22,-0.84 -1.668,0 -3.216,1.212 -3.216,4.224 0,2.52 1.32,3.708 2.964,3.708 1.39199,0 2.604,-0.984 2.604,-2.484 0,-1.584 -0.98401,-2.364 -2.376,-2.364 -0.72,0 -1.488,0.36 -2.088,0.96 0.048,-2.28 1.056,-3.072 2.196,-3.072 0.564,0 1.104,0.24 1.488,0.6 l 0.648,-0.732"
         style="font-size:12px;font-weight:500;text-align:start;line-height:125%;writing-mode:lr-tb;text-anchor:start;font-family:Source Code Pro;-inkscape-font-specification:Source Code Pro Medium"
         id="path4072" />
      <path
         d="m 209.27382,874.351 c 0,-0.696 0.492,-1.176 1.164,-1.548 1.272,0.444 2.256,0.696 2.256,1.668 0,0.756 -0.612,1.236 -1.632,1.236 -1.08,0 -1.788,-0.552 -1.788,-1.356 m 2.34,-2.16 c -1.08,-0.348 -1.896,-0.72 -1.896,-1.548 0,-0.708 0.552,-1.14 1.332,-1.14 0.912,0 1.416,0.54 1.416,1.26 0,0.516 -0.288,0.984 -0.852,1.428 m -3.408,2.28 c 0,1.224 1.092,2.1 2.832,2.1 1.776,0 2.784,-0.9 2.784,-2.064 0,-1.068 -0.66,-1.572 -1.488,-1.98 l 0,-0.048 c 0.624,-0.432 1.152,-1.068 1.152,-1.788 0,-1.212 -0.912,-2.052 -2.412,-2.052 -1.404,0 -2.424,0.792 -2.424,2.004 0,0.804 0.516,1.38 1.152,1.788 l 0,0.048 c -0.816,0.384 -1.596,0.972 -1.596,1.992"
         style="font-size:12px;font-weight:500;text-align:start;line-height:125%;writing-mode:lr-tb;text-anchor:start;font-family:Source Code Pro;-inkscape-font-specification:Source Code Pro Medium"
         id="path4074" />
      <path
         d="m 217.12913,875.455 c 0,0.66 0.468,1.116 1.08,1.116 0.612,0 1.08,-0.456 1.08,-1.116 0,-0.648 -0.468,-1.116 -1.08,-1.116 -0.612,0 -1.08,0.468 -1.08,1.116"
         style="font-size:12px;font-weight:500;text-align:start;line-height:125%;writing-mode:lr-tb;text-anchor:start;font-family:Source Code Pro;-inkscape-font-specification:Source Code Pro Medium"
         id="path4076" />
      <path
         d="m 222.63244,876.427 5.472,0 0,-1.008 -2.34,0 c -0.432,0 -0.948,0.036 -1.404,0.072 1.92,-1.74 3.336,-3.156 3.336,-4.56 0,-1.38 -0.996,-2.292 -2.544,-2.292 -1.104,0 -1.86,0.444 -2.58,1.176 l 0.672,0.66 c 0.468,-0.48 1.068,-0.888 1.752,-0.888 1.044,0 1.56,0.564 1.56,1.404 0,1.236 -1.428,2.568 -3.924,4.74 l 0,0.696"
         style="font-size:12px;font-weight:500;text-align:start;line-height:125%;writing-mode:lr-tb;text-anchor:start;font-family:Source Code Pro;-inkscape-font-specification:Source Code Pro Medium"
         id="path4078" />
      <path
         d="m 231.51976,875.455 c 0,0.66 0.468,1.116 1.08,1.116 0.612,0 1.08,-0.456 1.08,-1.116 0,-0.648 -0.468,-1.116 -1.08,-1.116 -0.612,0 -1.08,0.468 -1.08,1.116"
         style="font-size:12px;font-weight:500;text-align:start;line-height:125%;writing-mode:lr-tb;text-anchor:start;font-family:Source Code Pro;-inkscape-font-specification:Source Code Pro Medium"
         id="path4080" />
      <path
         d="m 237.02307,876.427 5.472,0 0,-1.008 -2.34,0 c -0.432,0 -0.948,0.036 -1.404,0.072 1.92,-1.74 3.336,-3.156 3.336,-4.56 0,-1.38 -0.996,-2.292 -2.544,-2.292 -1.104,0 -1.86,0.444 -2.58,1.176 l 0.672,0.66 c 0.468,-0.48 1.068,-0.888 1.752,-0.888 1.044,0 1.56,0.564 1.56,1.404 0,1.236 -1.428,2.568 -3.924,4.74 l 0,0.696"
         style="font-size:12px;font-weight:500;text-align:start;line-height:125%;writing-mode:lr-tb;text-anchor:start;font-family:Source Code Pro;-inkscape-font-specification:Source Code Pro Medium"
         id="path4082" />
      <path
         d="m 244.02638,875.491 c 0.564,0.588 1.464,1.08 2.784,1.08 1.548,0 2.844,-0.816 2.844,-2.196 0,-1.032 -0.852,-1.692 -1.86,-1.92 l 0,-0.048 c 0.948,-0.324 1.596,-0.9 1.596,-1.788 0,-1.26 -1.104,-1.98 -2.616,-1.98 -0.984,0 -1.812,0.396 -2.472,0.96 l 0.624,0.744 c 0.504,-0.444 1.116,-0.756 1.8,-0.756 0.876,0 1.464,0.432 1.464,1.116 0,0.756 -0.66,1.32 -2.4,1.32 l 0,0.888 c 1.956,0 2.664,0.564 2.664,1.404 0,0.792 -0.744,1.284 -1.728,1.284 -0.912,0 -1.608,-0.408 -2.112,-0.876 l -0.588,0.768"
         style="font-size:12px;font-weight:500;text-align:start;line-height:125%;writing-mode:lr-tb;text-anchor:start;font-family:Source Code Pro;-inkscape-font-specification:Source Code Pro Medium"
         id="path4084" />
      <path
         d="m 165.54994,891.427 1.392,0 0.588,-2.688 c 0.132,-0.72 0.204,-1.236 0.288,-1.716 l 0.048,0 c 0.108,0.6 0.192,1.152 0.3,1.704 l 0.6,2.7 1.416,0 1.176,-5.868 -1.104,0 -0.624,3.216 c -0.096,0.564 -0.156,1.104 -0.264,1.668 l -0.048,0 c -0.108,-0.564 -0.216,-1.104 -0.336,-1.668 l -0.648,-2.748 -0.936,0 -0.624,2.748 c -0.12,0.552 -0.228,1.104 -0.324,1.668 l -0.048,0 c -0.084,-0.564 -0.156,-1.104 -0.264,-1.668 l -0.624,-3.216 -1.188,0 1.224,5.868"
         style="font-size:12px;font-weight:500;text-align:start;line-height:125%;writing-mode:lr-tb;text-anchor:start;font-family:Source Code Pro;-inkscape-font-specification:Source Code Pro Medium"
         id="path4086" />
      <path
         d="m 172.74526,891.427 1.392,0 0.588,-2.688 c 0.132,-0.72 0.204,-1.236 0.288,-1.716 l 0.048,0 c 0.108,0.6 0.192,1.152 0.3,1.704 l 0.6,2.7 1.416,0 1.176,-5.868 -1.104,0 -0.624,3.216 c -0.096,0.564 -0.156,1.104 -0.264,1.668 l -0.048,0 c -0.108,-0.564 -0.216,-1.104 -0.336,-1.668 l -0.648,-2.748 -0.936,0 -0.624,2.748 c -0.12,0.552 -0.228,1.104 -0.324,1.668 l -0.048,0 c -0.084,-0.564 -0.156,-1.104 -0.264,-1.668 l -0.624,-3.216 -1.188,0 1.224,5.868"
         style="font-size:12px;font-weight:500;text-align:start;line-height:125%;writing-mode:lr-tb;text-anchor:start;font-family:Source Code Pro;-inkscape-font-specification:Source Code Pro Medium"
         id="path4088" />
      <path
         d="m 179.94057,891.427 1.392,0 0.588,-2.688 c 0.132,-0.72 0.204,-1.236 0.288,-1.716 l 0.048,0 c 0.108,0.6 0.192,1.152 0.3,1.704 l 0.6,2.7 1.416,0 1.176,-5.868 -1.104,0 -0.624,3.216 c -0.096,0.564 -0.156,1.104 -0.264,1.668 l -0.048,0 c -0.108,-0.564 -0.216,-1.104 -0.336,-1.668 l -0.648,-2.748 -0.936,0 -0.624,2.748 c -0.12,0.552 -0.228,1.104 -0.324,1.668 l -0.048,0 c -0.084,-0.564 -0.156,-1.104 -0.264,-1.668 l -0.624,-3.216 -1.188,0 1.224,5.868"
         style="font-size:12px;font-weight:500;text-align:start;line-height:125%;writing-mode:lr-tb;text-anchor:start;font-family:Source Code Pro;-inkscape-font-specification:Source Code Pro Medium"
         id="path4090" />
      <path
         d="m 188.34788,890.455 c 0,0.66 0.468,1.116 1.08,1.116 0.612,0 1.08,-0.456 1.08,-1.116 0,-0.648 -0.468,-1.116 -1.08,-1.116 -0.612,0 -1.08,0.468 -1.08,1.116"
         style="font-size:12px;font-weight:500;text-align:start;line-height:125%;writing-mode:lr-tb;text-anchor:start;font-family:Source Code Pro;-inkscape-font-specification:Source Code Pro Medium"
         id="path4092" />
      <path
         d="m 194.06719,886.519 2.628,0 0,4.908 1.188,0 0,-5.868 -3.816,0 0,0.96 m 3.12,-2.076 c 0.504,0 0.888,-0.324 0.888,-0.84 0,-0.504 -0.384,-0.852 -0.888,-0.852 -0.504,0 -0.888,0.348 -0.888,0.852 0,0.516 0.384,0.84 0.888,0.84"
         style="font-size:12px;font-weight:500;text-align:start;line-height:125%;writing-mode:lr-tb;text-anchor:start;font-family:Source Code Pro;-inkscape-font-specification:Source Code Pro Medium"
         id="path4094" />
      <path
         d="m 201.27451,891.427 1.188,0 0,-4.044 c 0.6,-0.624 1.044,-0.936 1.668,-0.936 0.88799,0 1.224,0.48 1.224,1.5 l 0,3.48 1.188,0 0,-3.636 c 0,-1.524 -0.62401,-2.376 -1.992,-2.376 -0.912,0 -1.572,0.48 -2.16,1.092 l -0.048,0 -0.096,-0.948 -0.972,0 0,5.868"
         style="font-size:12px;font-weight:500;text-align:start;line-height:125%;writing-mode:lr-tb;text-anchor:start;font-family:Source Code Pro;-inkscape-font-specification:Source Code Pro Medium"
         id="path4096" />
      <path
         d="m 208.08582,888.499 c 0,1.944 1.008,3.072 2.532,3.072 0.696,0 1.368,-0.396 1.836,-0.864 l 0.036,0 0.096,0.72 0.972,0 0,-8.508 -1.188,0 0,2.184 0.048,1.044 c -0.504,-0.456 -0.996,-0.732 -1.704,-0.732 -1.356,0 -2.628,1.176 -2.628,3.084 m 1.224,-0.012 c 0,-1.272 0.756,-2.076 1.668,-2.076 0.468,0 0.924,0.156 1.392,0.6 l 0,2.784 c -0.456,0.528 -0.948,0.792 -1.476,0.792 -0.996,0 -1.584,-0.756 -1.584,-2.1"
         style="font-size:12px;font-weight:500;text-align:start;line-height:125%;writing-mode:lr-tb;text-anchor:start;font-family:Source Code Pro;-inkscape-font-specification:Source Code Pro Medium"
         id="path4098" />
      <path
         d="m 215.65313,892.843 -0.24,0.924 c 0.216,0.072 0.516,0.12 0.804,0.12 1.368,0 2.088,-0.84 2.556,-2.088 l 2.508,-6.24 -1.128,0 -1.164,3.06 c -0.192,0.54 -0.408,1.152 -0.6,1.716 l -0.048,0 c -0.24,-0.576 -0.468,-1.188 -0.684,-1.716 l -1.32,-3.06 -1.188,0 2.676,5.832 -0.156,0.408 c -0.264,0.648 -0.732,1.128 -1.512,1.128 -0.18,0 -0.36,-0.036 -0.504,-0.084"
         style="font-size:12px;font-weight:500;text-align:start;line-height:125%;writing-mode:lr-tb;text-anchor:start;font-family:Source Code Pro;-inkscape-font-specification:Source Code Pro Medium"
         id="path4100" />
      <path
         d="m 222.45244,891.427 1.128,0 0,-4.176 c 0.264,-0.54 0.504,-0.804 0.864,-0.804 0.384,0 0.576,0.3 0.576,0.9 l 0,4.08 0.936,0 0,-4.176 c 0.264,-0.54 0.516,-0.804 0.888,-0.804 0.384,0 0.552,0.3 0.552,0.9 l 0,4.08 1.128,0 0,-4.176 c 0,-1.176 -0.468,-1.836 -1.284,-1.836 -0.648,0 -1.044,0.408 -1.356,0.996 -0.144,-0.66 -0.516,-0.996 -1.092,-0.996 -0.672,0 -1.02,0.384 -1.296,0.912 l -0.036,0 -0.096,-0.768 -0.912,0 0,5.868"
         style="font-size:12px;font-weight:500;text-align:start;line-height:125%;writing-mode:lr-tb;text-anchor:start;font-family:Source Code Pro;-inkscape-font-specification:Source Code Pro Medium"
         id="path4102" />
      <path
         d="m 229.77976,888.499 c 0,1.932 1.416,3.072 3.18,3.072 0.89999,0 1.668,-0.3 2.28,-0.684 l -0.42,-0.756 c -0.528,0.312 -1.068,0.504 -1.704,0.504 -1.176,0 -2.04,-0.684 -2.112,-1.836 l 4.416,0 c 0.024,-0.144 0.06,-0.372 0.06,-0.612 0,-1.632 -0.98401,-2.772 -2.7,-2.772 -1.524,0 -3,1.164 -3,3.084 m 1.212,-0.516 c 0.156,-1.044 0.936,-1.632 1.812,-1.632 1.00799,0 1.572,0.588 1.572,1.632 l -3.384,0"
         style="font-size:12px;font-weight:500;text-align:start;line-height:125%;writing-mode:lr-tb;text-anchor:start;font-family:Source Code Pro;-inkscape-font-specification:Source Code Pro Medium"
         id="path4104" />
      <path
         d="m 236.86707,888.499 c 0,1.944 1.008,3.072 2.532,3.072 0.696,0 1.368,-0.396 1.836,-0.864 l 0.036,0 0.096,0.72 0.972,0 0,-8.508 -1.188,0 0,2.184 0.048,1.044 c -0.504,-0.456 -0.996,-0.732 -1.704,-0.732 -1.356,0 -2.628,1.176 -2.628,3.084 m 1.224,-0.012 c 0,-1.272 0.756,-2.076 1.668,-2.076 0.468,0 0.924,0.156 1.392,0.6 l 0,2.784 c -0.456,0.528 -0.948,0.792 -1.476,0.792 -0.996,0 -1.584,-0.756 -1.584,-2.1"
         style="font-size:12px;font-weight:500;text-align:start;line-height:125%;writing-mode:lr-tb;text-anchor:start;font-family:Source Code Pro;-inkscape-font-specification:Source Code Pro Medium"
         id="path4106" />
      <path
         d="m 244.43438,886.519 2.628,0 0,4.908 1.188,0 0,-5.868 -3.816,0 0,0.96 m 3.12,-2.076 c 0.504,0 0.888,-0.324 0.888,-0.84 0,-0.504 -0.384,-0.852 -0.888,-0.852 -0.504,0 -0.888,0.348 -0.888,0.852 0,0.516 0.384,0.84 0.888,0.84"
         style="font-size:12px;font-weight:500;text-align:start;line-height:125%;writing-mode:lr-tb;text-anchor:start;font-family:Source Code Pro;-inkscape-font-specification:Source Code Pro Medium"
         id="path4108" />
      <path
         d="m 251.49769,889.879 c 0,1.032 0.852,1.692 1.98,1.692 0.804,0 1.62,-0.42 2.244,-0.9 l 0.036,0 0.096,0.756 0.972,0 0,-3.528 c 0,-1.548 -0.828,-2.484 -2.448,-2.484 -1.02,0 -1.992,0.432 -2.64,0.828 l 0.444,0.804 c 0.576,-0.336 1.272,-0.66 1.992,-0.66 1.044,0 1.428,0.588 1.464,1.308 -2.95199,0.228 -4.14,0.864 -4.14,2.184 m 1.152,-0.084 c 0,-0.708 0.68401,-1.164 2.988,-1.344 l 0,1.392 c -0.6,0.492 -1.2,0.78 -1.824,0.78 -0.636,0 -1.164,-0.24 -1.164,-0.828"
         style="font-size:12px;font-weight:500;text-align:start;line-height:125%;writing-mode:lr-tb;text-anchor:start;font-family:Source Code Pro;-inkscape-font-specification:Source Code Pro Medium"
         id="path4110" />
      <path
         d="m 260.30101,890.455 c 0,0.66 0.468,1.116 1.08,1.116 0.612,0 1.08,-0.456 1.08,-1.116 0,-0.648 -0.468,-1.116 -1.08,-1.116 -0.612,0 -1.08,0.468 -1.08,1.116"
         style="font-size:12px;font-weight:500;text-align:start;line-height:125%;writing-mode:lr-tb;text-anchor:start;font-family:Source Code Pro;-inkscape-font-specification:Source Code Pro Medium"
         id="path4112" />
      <path
         d="m 265.64832,888.499 c 0,1.944 1.392,3.072 2.928,3.072 1.536,0 2.928,-1.128 2.928,-3.072 0,-1.956 -1.392,-3.084 -2.928,-3.084 -1.536,0 -2.928,1.128 -2.928,3.084 m 1.224,0 c 0,-1.26 0.66,-2.1 1.704,-2.1 1.044,0 1.704,0.84 1.704,2.1 0,1.26 -0.66,2.1 -1.704,2.1 -1.044,0 -1.704,-0.84 -1.704,-2.1"
         style="font-size:12px;font-weight:500;text-align:start;line-height:125%;writing-mode:lr-tb;text-anchor:start;font-family:Source Code Pro;-inkscape-font-specification:Source Code Pro Medium"
         id="path4114" />
      <path
         d="m 273.82763,891.427 1.188,0 0,-3.336 c 0.648,-1.176 1.464,-1.608 2.304,-1.608 0.444,0 0.672,0.06 1.068,0.192 l 0.264,-1.02 c -0.36,-0.168 -0.696,-0.24 -1.152,-0.24 -1.044,0 -1.956,0.564 -2.556,1.512 l -0.036,0 -0.096,-1.368 -0.984,0 0,5.868"
         style="font-size:12px;font-weight:500;text-align:start;line-height:125%;writing-mode:lr-tb;text-anchor:start;font-family:Source Code Pro;-inkscape-font-specification:Source Code Pro Medium"
         id="path4116" />
      <path
         d="m 281.17894,892.339 c 0,-0.312 0.168,-0.6 0.648,-0.876 0.252,0.072 0.54,0.096 0.9,0.096 l 1.032,0 c 0.84,0 1.272,0.132 1.272,0.636 0,0.564 -0.804,1.08 -2.052,1.08 -1.164,0 -1.8,-0.372 -1.8,-0.936 m -1.008,0.144 c 0,1.032 1.03201,1.584 2.688,1.584 2.028,0 3.312,-0.936 3.312,-2.052 0,-1.008 -0.744,-1.416 -2.268,-1.416 l -1.248,0 c -0.744,0 -1.164,-0.18 -1.164,-0.612 0,-0.252 0.144,-0.444 0.408,-0.612 0.324,0.132 0.66,0.192 0.948,0.192 1.284,0 2.304,-0.72 2.304,-2.004 0,-0.456 -0.228,-0.852 -0.468,-1.104 l 1.464,0 0,-0.9 -2.412,0 c -0.264,-0.096 -0.552,-0.144 -0.888,-0.144 -1.272,0 -2.364,0.804 -2.364,2.112 0,0.696 0.336,1.212 0.744,1.512 l 0,0.048 c -0.444,0.3 -0.708,0.72 -0.708,1.104 0,0.492 0.288,0.792 0.6,0.972 l 0,0.048 c -0.612,0.348 -0.948,0.804 -0.948,1.272 m 2.676,-3.684 c -0.672,0 -1.224,-0.48 -1.224,-1.272 0,-0.768 0.552,-1.272 1.224,-1.272 0.672,0 1.224,0.504 1.224,1.272 0,0.792 -0.552,1.272 -1.224,1.272"
         style="font-size:12px;font-weight:500;text-align:start;line-height:125%;writing-mode:lr-tb;text-anchor:start;font-family:Source Code Pro;-inkscape-font-specification:Source Code Pro Medium"
         id="path4118" />
    </g>
  </g>
</svg>
