<?xml version="1.0" encoding="utf-8"?>
<!-- Generator: Adobe Illustrator 16.0.0, SVG Export Plug-In . SVG Version: 6.00 Build 0)  -->
<!DOCTYPE svg PUBLIC "-//W3C//DTD SVG 1.1//EN" "http://www.w3.org/Graphics/SVG/1.1/DTD/svg11.dtd">
<svg version="1.1" id="Ebene_1" xmlns="http://www.w3.org/2000/svg" xmlns:xlink="http://www.w3.org/1999/xlink" x="0px" y="0px"
	 width="499px" height="481.9px" viewBox="0 0 499 481.9" enable-background="new 0 0 499 481.9" xml:space="preserve">
<line fill="none" stroke="#FFFFFF" stroke-miterlimit="10" x1="247.3" y1="307.5" x2="204.4" y2="264.7"/>
<g>
	<g>
		<polyline fill="none" stroke="#FFFFFF" stroke-miterlimit="10" points="394.6,312.9 394.6,314.9 392.6,314.9 		"/>
		
			<line fill="none" stroke="#FFFFFF" stroke-miterlimit="10" stroke-dasharray="3.9855,3.9855" x1="388.6" y1="314.9" x2="119.6" y2="314.9"/>
		<polyline fill="none" stroke="#FFFFFF" stroke-miterlimit="10" points="117.6,314.9 115.6,314.9 115.6,312.9 		"/>
		
			<line fill="none" stroke="#FFFFFF" stroke-miterlimit="10" stroke-dasharray="3.9424,3.9424" x1="115.6" y1="309" x2="115.6" y2="129.6"/>
		<polyline fill="none" stroke="#FFFFFF" stroke-miterlimit="10" points="115.6,127.6 115.6,125.6 117.6,125.6 		"/>
		
			<line fill="none" stroke="#FFFFFF" stroke-miterlimit="10" stroke-dasharray="3.9855,3.9855" x1="121.5" y1="125.6" x2="390.6" y2="125.6"/>
		<polyline fill="none" stroke="#FFFFFF" stroke-miterlimit="10" points="392.6,125.6 394.6,125.6 394.6,127.6 		"/>
		
			<line fill="none" stroke="#FFFFFF" stroke-miterlimit="10" stroke-dasharray="3.9424,3.9424" x1="394.6" y1="131.6" x2="394.6" y2="311"/>
	</g>
</g>
<polygon fill="none" stroke="#FFFFFF" stroke-miterlimit="10" points="152.9,264.7 127.2,219.8 152.9,175 204.4,175 230.2,219.8 
	204.4,264.7 "/>
<circle fill="#FFFFFF" stroke="#FFFFFF" stroke-miterlimit="10" cx="255.5" cy="125.4" r="13.5"/>
<circle fill="#FFFFFF" stroke="#FFFFFF" stroke-miterlimit="10" cx="255.5" cy="35.4" r="13.5"/>
<circle fill="#FFFFFF" stroke="#FFFFFF" stroke-miterlimit="10" cx="255.5" cy="314.4" r="13.5"/>
<g>
	<line fill="none" stroke="#FFFFFF" stroke-miterlimit="10" x1="259.6" y1="66.3" x2="250.6" y2="66.3"/>
	<line fill="none" stroke="#FFFFFF" stroke-miterlimit="10" x1="259.6" y1="60.4" x2="250.6" y2="60.4"/>
	<line fill="none" stroke="#FFFFFF" stroke-miterlimit="10" x1="259.6" y1="72" x2="250.6" y2="72"/>
	<line fill="none" stroke="#FFFFFF" stroke-miterlimit="10" x1="259.6" y1="77.7" x2="250.6" y2="77.7"/>
	<line fill="none" stroke="#FFFFFF" stroke-miterlimit="10" x1="259.6" y1="83.3" x2="250.6" y2="83.3"/>
	<line fill="none" stroke="#FFFFFF" stroke-miterlimit="10" x1="259.6" y1="89" x2="250.6" y2="89"/>
	<line fill="none" stroke="#FFFFFF" stroke-miterlimit="10" x1="259.6" y1="94.7" x2="250.6" y2="94.7"/>
	<line fill="none" stroke="#FFFFFF" stroke-miterlimit="10" x1="259.6" y1="100.3" x2="250.6" y2="100.3"/>
</g>
<g>
	<line fill="none" stroke="#FFFFFF" stroke-miterlimit="10" x1="259.6" y1="345.6" x2="250.6" y2="345.6"/>
	<line fill="none" stroke="#FFFFFF" stroke-miterlimit="10" x1="259.6" y1="339.6" x2="250.6" y2="339.6"/>
	<line fill="none" stroke="#FFFFFF" stroke-miterlimit="10" x1="259.6" y1="351.2" x2="250.6" y2="351.2"/>
	<line fill="none" stroke="#FFFFFF" stroke-miterlimit="10" x1="259.6" y1="356.9" x2="250.6" y2="356.9"/>
	<line fill="none" stroke="#FFFFFF" stroke-miterlimit="10" x1="259.6" y1="362.6" x2="250.6" y2="362.6"/>
	<line fill="none" stroke="#FFFFFF" stroke-miterlimit="10" x1="259.6" y1="368.2" x2="250.6" y2="368.2"/>
	<line fill="none" stroke="#FFFFFF" stroke-miterlimit="10" x1="259.6" y1="373.9" x2="250.6" y2="373.9"/>
	<line fill="none" stroke="#FFFFFF" stroke-miterlimit="10" x1="259.6" y1="379.6" x2="250.6" y2="379.6"/>
</g>
<g>
	<line fill="none" stroke="#FFFFFF" stroke-miterlimit="10" x1="203.7" y1="372.3" x2="197.3" y2="365.9"/>
	<line fill="none" stroke="#FFFFFF" stroke-miterlimit="10" x1="207.8" y1="368.1" x2="201.5" y2="361.7"/>
	<line fill="none" stroke="#FFFFFF" stroke-miterlimit="10" x1="211.9" y1="364.1" x2="205.5" y2="357.7"/>
	<line fill="none" stroke="#FFFFFF" stroke-miterlimit="10" x1="215.9" y1="360.1" x2="209.5" y2="353.7"/>
	<line fill="none" stroke="#FFFFFF" stroke-miterlimit="10" x1="219.9" y1="356.1" x2="213.5" y2="349.7"/>
	<line fill="none" stroke="#FFFFFF" stroke-miterlimit="10" x1="223.9" y1="352.1" x2="217.5" y2="345.7"/>
	<line fill="none" stroke="#FFFFFF" stroke-miterlimit="10" x1="227.9" y1="348.1" x2="221.5" y2="341.7"/>
	<line fill="none" stroke="#FFFFFF" stroke-miterlimit="10" x1="231.9" y1="344" x2="225.5" y2="337.7"/>
	<line fill="none" stroke="#FFFFFF" stroke-miterlimit="10" x1="235.9" y1="340" x2="229.5" y2="333.7"/>
	<line fill="none" stroke="#FFFFFF" stroke-miterlimit="10" x1="239.9" y1="336" x2="233.6" y2="329.7"/>
	<line fill="none" stroke="#FFFFFF" stroke-miterlimit="10" x1="199.7" y1="376.3" x2="193.3" y2="369.9"/>
	<line fill="none" stroke="#FFFFFF" stroke-miterlimit="10" x1="195.6" y1="380.3" x2="189.3" y2="373.9"/>
</g>
<g>
	<line fill="none" stroke="#FFFFFF" stroke-miterlimit="10" x1="313.5" y1="365.9" x2="307.2" y2="372.3"/>
	<line fill="none" stroke="#FFFFFF" stroke-miterlimit="10" x1="309.4" y1="361.7" x2="303" y2="368.1"/>
	<line fill="none" stroke="#FFFFFF" stroke-miterlimit="10" x1="305.4" y1="357.7" x2="299" y2="364.1"/>
	<line fill="none" stroke="#FFFFFF" stroke-miterlimit="10" x1="301.3" y1="353.7" x2="295" y2="360.1"/>
	<line fill="none" stroke="#FFFFFF" stroke-miterlimit="10" x1="297.3" y1="349.7" x2="291" y2="356.1"/>
	<line fill="none" stroke="#FFFFFF" stroke-miterlimit="10" x1="293.3" y1="345.7" x2="287" y2="352.1"/>
	<line fill="none" stroke="#FFFFFF" stroke-miterlimit="10" x1="289.3" y1="341.7" x2="283" y2="348.1"/>
	<line fill="none" stroke="#FFFFFF" stroke-miterlimit="10" x1="285.3" y1="337.7" x2="278.9" y2="344"/>
	<line fill="none" stroke="#FFFFFF" stroke-miterlimit="10" x1="281.3" y1="333.7" x2="274.9" y2="340"/>
	<line fill="none" stroke="#FFFFFF" stroke-miterlimit="10" x1="277.3" y1="329.7" x2="270.9" y2="336"/>
	<line fill="none" stroke="#FFFFFF" stroke-miterlimit="10" x1="317.6" y1="369.9" x2="311.2" y2="376.3"/>
	<line fill="none" stroke="#FFFFFF" stroke-miterlimit="10" x1="321.6" y1="373.9" x2="315.2" y2="380.3"/>
</g>
<g>
	<rect x="223.6" y="390.9" fill="none" stroke="#FFFFFF" stroke-miterlimit="10" width="63" height="45"/>
	<line fill="none" stroke="#FFFFFF" stroke-miterlimit="10" x1="223.6" y1="399.9" x2="286.6" y2="399.9"/>
	<line fill="none" stroke="#FFFFFF" stroke-miterlimit="10" x1="232.6" y1="390.9" x2="232.6" y2="399.9"/>
</g>
<g>
	<rect x="313.6" y="390.9" fill="none" stroke="#FFFFFF" stroke-miterlimit="10" width="63" height="45"/>
	<line fill="none" stroke="#FFFFFF" stroke-miterlimit="10" x1="313.6" y1="399.9" x2="376.6" y2="399.9"/>
	<line fill="none" stroke="#FFFFFF" stroke-miterlimit="10" x1="322.6" y1="390.9" x2="322.6" y2="399.9"/>
</g>
<g>
	<rect x="133.6" y="390.9" fill="none" stroke="#FFFFFF" stroke-miterlimit="10" width="63" height="45"/>
	<line fill="none" stroke="#FFFFFF" stroke-miterlimit="10" x1="133.6" y1="399.9" x2="196.6" y2="399.9"/>
	<line fill="none" stroke="#FFFFFF" stroke-miterlimit="10" x1="142.6" y1="390.9" x2="142.6" y2="399.9"/>
</g>
<rect x="364.5" y="423.7" transform="matrix(0.7071 0.7071 -0.7071 0.7071 409.7203 -135.0596)" fill="#FFFFFF" width="6.7" height="6.7"/>
<rect x="274.4" y="423.7" transform="matrix(0.7071 0.7071 -0.7071 0.7071 383.3153 -71.3123)" fill="#FFFFFF" width="6.7" height="6.7"/>
<rect x="184.5" y="423.7" transform="matrix(0.7071 0.7071 -0.7071 0.7071 356.9941 -7.7673)" fill="#FFFFFF" width="6.7" height="6.7"/>
<g>
	<line fill="none" stroke="#FFFFFF" stroke-miterlimit="10" x1="164.3" y1="221.4" x2="166.8" y2="229.2"/>
	<line fill="none" stroke="#FFFFFF" stroke-miterlimit="10" x1="173.7" y1="208.1" x2="167.1" y2="213"/>
	<line fill="none" stroke="#FFFFFF" stroke-miterlimit="10" x1="192.9" y1="221.4" x2="190.4" y2="229.2"/>
	<line fill="none" stroke="#FFFFFF" stroke-miterlimit="10" x1="183.6" y1="208.1" x2="190.2" y2="213"/>
	<line fill="none" stroke="#FFFFFF" stroke-miterlimit="10" x1="174.5" y1="234.9" x2="182.8" y2="235"/>
	<line fill="none" stroke="#FFFFFF" stroke-miterlimit="10" x1="173.8" y1="231.1" x2="190.4" y2="219.8"/>
	<line fill="none" stroke="#FFFFFF" stroke-miterlimit="10" x1="170.4" y1="229.1" x2="176.4" y2="209.9"/>
	<line fill="none" stroke="#FFFFFF" stroke-miterlimit="10" x1="183.6" y1="231.1" x2="166.9" y2="219.8"/>
	<line fill="none" stroke="#FFFFFF" stroke-miterlimit="10" x1="186.9" y1="229.1" x2="180.9" y2="209.9"/>
	<line fill="none" stroke="#FFFFFF" stroke-miterlimit="10" x1="167.7" y1="216.4" x2="189.7" y2="216.4"/>
	
		<rect x="185.7" y="231.9" transform="matrix(0.7071 0.7071 -0.7071 0.7071 221.3139 -64.5989)" fill="#FFFFFF" width="5.9" height="5.9"/>
	
		<rect x="191.8" y="213.2" transform="matrix(0.7071 0.7071 -0.7071 0.7071 209.8876 -74.3882)" fill="#FFFFFF" width="5.9" height="5.9"/>
	<rect x="165.7" y="232" transform="matrix(0.707 0.7072 -0.7072 0.707 215.5978 -50.4225)" fill="#FFFFFF" width="6" height="6"/>
	
		<rect x="159.5" y="213.2" transform="matrix(0.7071 0.7071 -0.7071 0.7071 200.4408 -51.5836)" fill="#FFFFFF" width="6" height="6"/>
	
		<rect x="175.6" y="201.9" transform="matrix(0.7071 0.7071 -0.7071 0.7071 197.1377 -66.2754)" fill="#FFFFFF" width="5.9" height="5.9"/>
</g>
</svg>
