<?xml version="1.0" encoding="utf-8"?>
<!-- Generator: Adobe Illustrator 16.0.0, SVG Export Plug-In . SVG Version: 6.00 Build 0)  -->
<!DOCTYPE svg PUBLIC "-//W3C//DTD SVG 1.1//EN" "http://www.w3.org/Graphics/SVG/1.1/DTD/svg11.dtd">
<svg version="1.1" id="Ebene_1" xmlns="http://www.w3.org/2000/svg" xmlns:xlink="http://www.w3.org/1999/xlink" x="0px" y="0px"
	 width="499px" height="481.9px" viewBox="0 0 499 481.9" enable-background="new 0 0 499 481.9" xml:space="preserve">
<g>
	<g>
		<polyline fill="none" stroke="#FFFFFF" stroke-miterlimit="10" points="395.2,311.4 395.2,313.4 393.2,313.4 		"/>
		
			<line fill="none" stroke="#FFFFFF" stroke-miterlimit="10" stroke-dasharray="3.9855,3.9855" x1="389.2" y1="313.4" x2="120.2" y2="313.4"/>
		<polyline fill="none" stroke="#FFFFFF" stroke-miterlimit="10" points="118.2,313.4 116.2,313.4 116.2,311.4 		"/>
		
			<line fill="none" stroke="#FFFFFF" stroke-miterlimit="10" stroke-dasharray="3.9424,3.9424" x1="116.2" y1="307.5" x2="116.2" y2="128.1"/>
		<polyline fill="none" stroke="#FFFFFF" stroke-miterlimit="10" points="116.2,126.1 116.2,124.1 118.2,124.1 		"/>
		
			<line fill="none" stroke="#FFFFFF" stroke-miterlimit="10" stroke-dasharray="3.9855,3.9855" x1="122.2" y1="124.1" x2="391.2" y2="124.1"/>
		<polyline fill="none" stroke="#FFFFFF" stroke-miterlimit="10" points="393.2,124.1 395.2,124.1 395.2,126.1 		"/>
		
			<line fill="none" stroke="#FFFFFF" stroke-miterlimit="10" stroke-dasharray="3.9424,3.9424" x1="395.2" y1="130.1" x2="395.2" y2="309.5"/>
	</g>
</g>
<line fill="#FFFFFF" stroke="#FFFFFF" stroke-miterlimit="10" x1="256.2" y1="136.9" x2="256.2" y2="299.4"/>
<circle fill="#FFFFFF" stroke="#FFFFFF" stroke-miterlimit="10" cx="256.2" cy="123.9" r="13.5"/>
<circle fill="#FFFFFF" stroke="#FFFFFF" stroke-miterlimit="10" cx="256.2" cy="33.9" r="13.5"/>
<circle fill="#FFFFFF" stroke="#FFFFFF" stroke-miterlimit="10" cx="256.2" cy="312.9" r="13.5"/>
<g>
	<line fill="none" stroke="#FFFFFF" stroke-miterlimit="10" x1="260.2" y1="64.8" x2="251.2" y2="64.8"/>
	<line fill="none" stroke="#FFFFFF" stroke-miterlimit="10" x1="260.2" y1="58.9" x2="251.2" y2="58.9"/>
	<line fill="none" stroke="#FFFFFF" stroke-miterlimit="10" x1="260.2" y1="70.5" x2="251.2" y2="70.5"/>
	<line fill="none" stroke="#FFFFFF" stroke-miterlimit="10" x1="260.2" y1="76.2" x2="251.2" y2="76.2"/>
	<line fill="none" stroke="#FFFFFF" stroke-miterlimit="10" x1="260.2" y1="81.8" x2="251.2" y2="81.8"/>
	<line fill="none" stroke="#FFFFFF" stroke-miterlimit="10" x1="260.2" y1="87.5" x2="251.2" y2="87.5"/>
	<line fill="none" stroke="#FFFFFF" stroke-miterlimit="10" x1="260.2" y1="93.2" x2="251.2" y2="93.2"/>
	<line fill="none" stroke="#FFFFFF" stroke-miterlimit="10" x1="260.2" y1="98.8" x2="251.2" y2="98.8"/>
</g>
<g>
	<line fill="none" stroke="#FFFFFF" stroke-miterlimit="10" x1="260.2" y1="344.1" x2="251.2" y2="344.1"/>
	<line fill="none" stroke="#FFFFFF" stroke-miterlimit="10" x1="260.2" y1="338.1" x2="251.2" y2="338.1"/>
	<line fill="none" stroke="#FFFFFF" stroke-miterlimit="10" x1="260.2" y1="349.7" x2="251.2" y2="349.7"/>
	<line fill="none" stroke="#FFFFFF" stroke-miterlimit="10" x1="260.2" y1="355.4" x2="251.2" y2="355.4"/>
	<line fill="none" stroke="#FFFFFF" stroke-miterlimit="10" x1="260.2" y1="361.1" x2="251.2" y2="361.1"/>
	<line fill="none" stroke="#FFFFFF" stroke-miterlimit="10" x1="260.2" y1="366.7" x2="251.2" y2="366.7"/>
	<line fill="none" stroke="#FFFFFF" stroke-miterlimit="10" x1="260.2" y1="372.4" x2="251.2" y2="372.4"/>
	<line fill="none" stroke="#FFFFFF" stroke-miterlimit="10" x1="260.2" y1="378.1" x2="251.2" y2="378.1"/>
</g>
<g>
	<line fill="none" stroke="#FFFFFF" stroke-miterlimit="10" x1="204.3" y1="370.8" x2="198" y2="364.4"/>
	<line fill="none" stroke="#FFFFFF" stroke-miterlimit="10" x1="208.5" y1="366.6" x2="202.1" y2="360.2"/>
	<line fill="none" stroke="#FFFFFF" stroke-miterlimit="10" x1="212.5" y1="362.6" x2="206.2" y2="356.2"/>
	<line fill="none" stroke="#FFFFFF" stroke-miterlimit="10" x1="216.5" y1="358.6" x2="210.2" y2="352.2"/>
	<line fill="none" stroke="#FFFFFF" stroke-miterlimit="10" x1="220.5" y1="354.6" x2="214.2" y2="348.2"/>
	<line fill="none" stroke="#FFFFFF" stroke-miterlimit="10" x1="224.5" y1="350.6" x2="218.2" y2="344.2"/>
	<line fill="none" stroke="#FFFFFF" stroke-miterlimit="10" x1="228.6" y1="346.6" x2="222.2" y2="340.2"/>
	<line fill="none" stroke="#FFFFFF" stroke-miterlimit="10" x1="232.6" y1="342.5" x2="226.2" y2="336.2"/>
	<line fill="none" stroke="#FFFFFF" stroke-miterlimit="10" x1="236.6" y1="338.5" x2="230.2" y2="332.2"/>
	<line fill="none" stroke="#FFFFFF" stroke-miterlimit="10" x1="240.6" y1="334.5" x2="234.2" y2="328.2"/>
	<line fill="none" stroke="#FFFFFF" stroke-miterlimit="10" x1="200.3" y1="374.8" x2="193.9" y2="368.4"/>
	<line fill="none" stroke="#FFFFFF" stroke-miterlimit="10" x1="196.3" y1="378.8" x2="189.9" y2="372.4"/>
</g>
<g>
	<line fill="none" stroke="#FFFFFF" stroke-miterlimit="10" x1="314.2" y1="364.4" x2="307.8" y2="370.8"/>
	<line fill="none" stroke="#FFFFFF" stroke-miterlimit="10" x1="310" y1="360.2" x2="303.7" y2="366.6"/>
	<line fill="none" stroke="#FFFFFF" stroke-miterlimit="10" x1="306" y1="356.2" x2="299.6" y2="362.6"/>
	<line fill="none" stroke="#FFFFFF" stroke-miterlimit="10" x1="302" y1="352.2" x2="295.6" y2="358.6"/>
	<line fill="none" stroke="#FFFFFF" stroke-miterlimit="10" x1="298" y1="348.2" x2="291.6" y2="354.6"/>
	<line fill="none" stroke="#FFFFFF" stroke-miterlimit="10" x1="294" y1="344.2" x2="287.6" y2="350.6"/>
	<line fill="none" stroke="#FFFFFF" stroke-miterlimit="10" x1="290" y1="340.2" x2="283.6" y2="346.6"/>
	<line fill="none" stroke="#FFFFFF" stroke-miterlimit="10" x1="286" y1="336.2" x2="279.6" y2="342.5"/>
	<line fill="none" stroke="#FFFFFF" stroke-miterlimit="10" x1="282" y1="332.2" x2="275.6" y2="338.5"/>
	<line fill="none" stroke="#FFFFFF" stroke-miterlimit="10" x1="277.9" y1="328.2" x2="271.6" y2="334.5"/>
	<line fill="none" stroke="#FFFFFF" stroke-miterlimit="10" x1="318.2" y1="368.4" x2="311.9" y2="374.8"/>
	<line fill="none" stroke="#FFFFFF" stroke-miterlimit="10" x1="322.2" y1="372.4" x2="315.9" y2="378.8"/>
</g>
<g>
	<rect x="224.2" y="389.4" fill="none" stroke="#FFFFFF" stroke-miterlimit="10" width="63" height="45"/>
	<line fill="none" stroke="#FFFFFF" stroke-miterlimit="10" x1="224.2" y1="398.4" x2="287.2" y2="398.4"/>
	<line fill="none" stroke="#FFFFFF" stroke-miterlimit="10" x1="233.2" y1="389.4" x2="233.2" y2="398.4"/>
</g>
<g>
	<rect x="314.2" y="389.4" fill="none" stroke="#FFFFFF" stroke-miterlimit="10" width="63" height="45"/>
	<line fill="none" stroke="#FFFFFF" stroke-miterlimit="10" x1="314.2" y1="398.4" x2="377.2" y2="398.4"/>
	<line fill="none" stroke="#FFFFFF" stroke-miterlimit="10" x1="323.2" y1="389.4" x2="323.2" y2="398.4"/>
</g>
<g>
	<rect x="134.2" y="389.4" fill="none" stroke="#FFFFFF" stroke-miterlimit="10" width="63" height="45"/>
	<line fill="none" stroke="#FFFFFF" stroke-miterlimit="10" x1="134.2" y1="398.4" x2="197.2" y2="398.4"/>
	<line fill="none" stroke="#FFFFFF" stroke-miterlimit="10" x1="143.2" y1="389.4" x2="143.2" y2="398.4"/>
</g>
<polygon fill="#FFFFFF" points="263,288.1 256.2,274.5 249.4,288.1 "/>
<polygon fill="#FFFFFF" points="263,163.9 256.2,150.3 249.4,163.9 "/>
</svg>
