<?xml version="1.0" encoding="utf-8"?>
<!-- Generator: Adobe Illustrator 16.0.0, SVG Export Plug-In . SVG Version: 6.00 Build 0)  -->
<!DOCTYPE svg PUBLIC "-//W3C//DTD SVG 1.1//EN" "http://www.w3.org/Graphics/SVG/1.1/DTD/svg11.dtd">
<svg version="1.1" id="Ebene_1" xmlns="http://www.w3.org/2000/svg" xmlns:xlink="http://www.w3.org/1999/xlink" x="0px" y="0px"
	 width="499px" height="593px" viewBox="0 0 499 593" enable-background="new 0 0 499 593" xml:space="preserve">
<line fill="none" stroke="#FFFFFF" stroke-miterlimit="10" x1="217.2" y1="300.9" x2="174.3" y2="258"/>
<g>
	<g>
		<polyline fill="none" stroke="#FFFFFF" stroke-miterlimit="10" points="366.9,304.4 366.9,310.4 360.9,310.4 		"/>
		
			<line fill="none" stroke="#FFFFFF" stroke-miterlimit="10" stroke-dasharray="11.6087,11.6087" x1="349.3" y1="310.4" x2="99.8" y2="310.4"/>
		<polyline fill="none" stroke="#FFFFFF" stroke-miterlimit="10" points="93.9,310.4 87.9,310.4 87.9,304.4 		"/>
		
			<line fill="none" stroke="#FFFFFF" stroke-miterlimit="10" stroke-dasharray="11.8194,11.8194" x1="87.9" y1="292.6" x2="87.9" y2="133.1"/>
		<polyline fill="none" stroke="#FFFFFF" stroke-miterlimit="10" points="87.9,127.1 87.9,121.1 93.9,121.1 		"/>
		
			<line fill="none" stroke="#FFFFFF" stroke-miterlimit="10" stroke-dasharray="11.6087,11.6087" x1="105.6" y1="121.1" x2="355.1" y2="121.1"/>
		<polyline fill="none" stroke="#FFFFFF" stroke-miterlimit="10" points="360.9,121.1 366.9,121.1 366.9,127.1 		"/>
		
			<line fill="none" stroke="#FFFFFF" stroke-miterlimit="10" stroke-dasharray="11.8194,11.8194" x1="366.9" y1="139" x2="366.9" y2="298.5"/>
	</g>
</g>
<line fill="#FFFFFF" stroke="#FFFFFF" stroke-miterlimit="10" x1="223.4" y1="133.9" x2="223.4" y2="296.4"/>
<g>
	<g>
		<line fill="none" stroke="#FFFFFF" stroke-miterlimit="10" x1="232.4" y1="188.2" x2="232.4" y2="189.7"/>
		
			<line fill="none" stroke="#FFFFFF" stroke-miterlimit="10" stroke-dasharray="2.8868,3.8491" x1="232.4" y1="193.5" x2="232.4" y2="238.7"/>
		<line fill="none" stroke="#FFFFFF" stroke-miterlimit="10" x1="232.4" y1="240.7" x2="232.4" y2="242.2"/>
	</g>
</g>
<polygon fill="none" stroke="#FFFFFF" stroke-miterlimit="10" points="279,260.2 253.2,215.3 279,170.5 330.5,170.5 356.2,215.3 
	330.5,260.2 "/>
<polygon fill="none" stroke="#FFFFFF" stroke-miterlimit="10" points="125.3,260.2 99.6,215.3 125.3,170.5 176.8,170.5 202.6,215.3 
	176.8,260.2 "/>
<polyline fill="none" stroke="#FFFFFF" stroke-miterlimit="10" points="267.3,235.2 232.4,255.1 232.4,305.2 "/>
<polyline fill="none" stroke="#FFFFFF" stroke-miterlimit="10" points="265.2,193.9 232.4,175.5 232.4,125.2 "/>
<circle fill="#FFFFFF" stroke="#FFFFFF" stroke-miterlimit="10" cx="227.9" cy="120.9" r="13.5"/>
<circle fill="#FFFFFF" stroke="#FFFFFF" stroke-miterlimit="10" cx="227.9" cy="30.9" r="13.5"/>
<circle fill="#FFFFFF" stroke="#FFFFFF" stroke-miterlimit="10" cx="227.9" cy="309.9" r="13.5"/>
<g>
	<line fill="none" stroke="#FFFFFF" stroke-miterlimit="10" x1="231.9" y1="61.8" x2="222.9" y2="61.8"/>
	<line fill="none" stroke="#FFFFFF" stroke-miterlimit="10" x1="231.9" y1="55.9" x2="222.9" y2="55.9"/>
	<line fill="none" stroke="#FFFFFF" stroke-miterlimit="10" x1="231.9" y1="67.5" x2="222.9" y2="67.5"/>
	<line fill="none" stroke="#FFFFFF" stroke-miterlimit="10" x1="231.9" y1="73.2" x2="222.9" y2="73.2"/>
	<line fill="none" stroke="#FFFFFF" stroke-miterlimit="10" x1="231.9" y1="78.8" x2="222.9" y2="78.8"/>
	<line fill="none" stroke="#FFFFFF" stroke-miterlimit="10" x1="231.9" y1="84.5" x2="222.9" y2="84.5"/>
	<line fill="none" stroke="#FFFFFF" stroke-miterlimit="10" x1="231.9" y1="90.2" x2="222.9" y2="90.2"/>
	<line fill="none" stroke="#FFFFFF" stroke-miterlimit="10" x1="231.9" y1="95.8" x2="222.9" y2="95.8"/>
</g>
<g>
	<line fill="none" stroke="#FFFFFF" stroke-miterlimit="10" x1="231.9" y1="341.1" x2="222.9" y2="341.1"/>
	<line fill="none" stroke="#FFFFFF" stroke-miterlimit="10" x1="231.9" y1="335.1" x2="222.9" y2="335.1"/>
	<line fill="none" stroke="#FFFFFF" stroke-miterlimit="10" x1="231.9" y1="346.7" x2="222.9" y2="346.7"/>
	<line fill="none" stroke="#FFFFFF" stroke-miterlimit="10" x1="231.9" y1="352.4" x2="222.9" y2="352.4"/>
	<line fill="none" stroke="#FFFFFF" stroke-miterlimit="10" x1="231.9" y1="358.1" x2="222.9" y2="358.1"/>
	<line fill="none" stroke="#FFFFFF" stroke-miterlimit="10" x1="231.9" y1="363.7" x2="222.9" y2="363.7"/>
	<line fill="none" stroke="#FFFFFF" stroke-miterlimit="10" x1="231.9" y1="369.4" x2="222.9" y2="369.4"/>
	<line fill="none" stroke="#FFFFFF" stroke-miterlimit="10" x1="231.9" y1="375.1" x2="222.9" y2="375.1"/>
</g>
<g>
	<line fill="none" stroke="#FFFFFF" stroke-miterlimit="10" x1="176" y1="367.8" x2="169.7" y2="361.4"/>
	<line fill="none" stroke="#FFFFFF" stroke-miterlimit="10" x1="180.2" y1="363.6" x2="173.9" y2="357.2"/>
	<line fill="none" stroke="#FFFFFF" stroke-miterlimit="10" x1="184.2" y1="359.6" x2="177.9" y2="353.2"/>
	<line fill="none" stroke="#FFFFFF" stroke-miterlimit="10" x1="188.2" y1="355.6" x2="181.9" y2="349.2"/>
	<line fill="none" stroke="#FFFFFF" stroke-miterlimit="10" x1="192.3" y1="351.6" x2="185.9" y2="345.2"/>
	<line fill="none" stroke="#FFFFFF" stroke-miterlimit="10" x1="196.3" y1="347.6" x2="189.9" y2="341.2"/>
	<line fill="none" stroke="#FFFFFF" stroke-miterlimit="10" x1="200.3" y1="343.6" x2="193.9" y2="337.2"/>
	<line fill="none" stroke="#FFFFFF" stroke-miterlimit="10" x1="204.3" y1="339.5" x2="197.9" y2="333.2"/>
	<line fill="none" stroke="#FFFFFF" stroke-miterlimit="10" x1="208.3" y1="335.5" x2="201.9" y2="329.2"/>
	<line fill="none" stroke="#FFFFFF" stroke-miterlimit="10" x1="212.3" y1="331.5" x2="205.9" y2="325.2"/>
	<line fill="none" stroke="#FFFFFF" stroke-miterlimit="10" x1="172" y1="371.8" x2="165.7" y2="365.4"/>
	<line fill="none" stroke="#FFFFFF" stroke-miterlimit="10" x1="168" y1="375.8" x2="161.7" y2="369.4"/>
</g>
<g>
	<line fill="none" stroke="#FFFFFF" stroke-miterlimit="10" x1="285.9" y1="361.4" x2="279.6" y2="367.8"/>
	<line fill="none" stroke="#FFFFFF" stroke-miterlimit="10" x1="281.7" y1="357.2" x2="275.4" y2="363.6"/>
	<line fill="none" stroke="#FFFFFF" stroke-miterlimit="10" x1="277.7" y1="353.2" x2="271.4" y2="359.6"/>
	<line fill="none" stroke="#FFFFFF" stroke-miterlimit="10" x1="273.7" y1="349.2" x2="267.4" y2="355.6"/>
	<line fill="none" stroke="#FFFFFF" stroke-miterlimit="10" x1="269.7" y1="345.2" x2="263.4" y2="351.6"/>
	<line fill="none" stroke="#FFFFFF" stroke-miterlimit="10" x1="265.7" y1="341.2" x2="259.3" y2="347.6"/>
	<line fill="none" stroke="#FFFFFF" stroke-miterlimit="10" x1="261.7" y1="337.2" x2="255.3" y2="343.6"/>
	<line fill="none" stroke="#FFFFFF" stroke-miterlimit="10" x1="257.7" y1="333.2" x2="251.3" y2="339.5"/>
	<line fill="none" stroke="#FFFFFF" stroke-miterlimit="10" x1="253.7" y1="329.2" x2="247.3" y2="335.5"/>
	<line fill="none" stroke="#FFFFFF" stroke-miterlimit="10" x1="249.7" y1="325.2" x2="243.3" y2="331.5"/>
	<line fill="none" stroke="#FFFFFF" stroke-miterlimit="10" x1="289.9" y1="365.4" x2="283.6" y2="371.8"/>
	<line fill="none" stroke="#FFFFFF" stroke-miterlimit="10" x1="294" y1="369.4" x2="287.6" y2="375.8"/>
</g>
<g>
	<rect x="195.9" y="386.4" fill="none" stroke="#FFFFFF" stroke-miterlimit="10" width="63" height="45"/>
	<line fill="none" stroke="#FFFFFF" stroke-miterlimit="10" x1="195.9" y1="395.4" x2="258.9" y2="395.4"/>
	<line fill="none" stroke="#FFFFFF" stroke-miterlimit="10" x1="204.9" y1="386.4" x2="204.9" y2="395.4"/>
</g>
<g>
	<rect x="285.9" y="386.4" fill="none" stroke="#FFFFFF" stroke-miterlimit="10" width="63" height="45"/>
	<line fill="none" stroke="#FFFFFF" stroke-miterlimit="10" x1="285.9" y1="395.4" x2="348.9" y2="395.4"/>
	<line fill="none" stroke="#FFFFFF" stroke-miterlimit="10" x1="294.9" y1="386.4" x2="294.9" y2="395.4"/>
</g>
<polygon fill="#FFFFFF" points="262.6,184.4 270.4,196.7 255.9,196.8 "/>
<polygon fill="#FFFFFF" points="271.1,241.2 256.5,241.4 264.1,228.9 "/>
<polygon fill="#FFFFFF" points="240.3,151.1 232.4,165.9 232.4,151 "/>
<polygon fill="#FFFFFF" points="215.4,166 223.3,151.1 223.3,166 "/>
<polygon fill="#FFFFFF" points="240.3,263.9 232.4,278.8 232.4,263.8 "/>
<polygon fill="#FFFFFF" points="215.4,279.6 223.3,264.8 223.3,279.7 "/>
<g>
	<rect x="105.9" y="386.4" fill="none" stroke="#FFFFFF" stroke-miterlimit="10" width="63" height="45"/>
	<line fill="none" stroke="#FFFFFF" stroke-miterlimit="10" x1="105.9" y1="395.4" x2="168.9" y2="395.4"/>
	<line fill="none" stroke="#FFFFFF" stroke-miterlimit="10" x1="114.9" y1="386.4" x2="114.9" y2="395.4"/>
</g>
<g>
	<polygon fill="#FFFFFF" stroke="#FFFFFF" stroke-miterlimit="10" points="316.1,232.2 290.6,232.2 290.6,195.2 308.7,195.2 
		316.1,202.7 	"/>
	<g>
		<line fill="none" stroke="#000000" stroke-width="2" stroke-miterlimit="10" x1="308.7" y1="216.8" x2="301.3" y2="216.8"/>
		<polyline fill="none" stroke="#000000" stroke-width="2" stroke-miterlimit="10" points="305,213.1 301.3,216.8 305,220.5 		"/>
	</g>
	<g>
		<polygon points="309,202.3 309,196.6 314.7,202.3 		"/>
		<path d="M309.5,197.9l4,4h-4V197.9 M308.5,195.4v7.4h7.4L308.5,195.4L308.5,195.4z"/>
	</g>
	
		<rect x="310.2" y="211" transform="matrix(0.7071 0.7071 -0.7071 0.7071 246.0037 -160.0451)" fill="#FFFFFF" stroke="#000000" stroke-miterlimit="10" width="11.9" height="11.9"/>
</g>
<rect x="336.9" y="419.2" transform="matrix(0.7071 0.7071 -0.7071 0.7071 398.45 -116.8507)" fill="#FFFFFF" width="6.7" height="6.7"/>
<rect x="246.8" y="419.2" transform="matrix(0.7071 0.7071 -0.7071 0.7071 372.045 -53.1034)" fill="#FFFFFF" width="6.7" height="6.7"/>
<rect x="156.9" y="419.2" transform="matrix(0.7071 0.7071 -0.7071 0.7071 345.7238 10.4416)" fill="#FFFFFF" width="6.7" height="6.7"/>
<g>
	<line fill="none" stroke="#FFFFFF" stroke-miterlimit="10" x1="137.3" y1="214.9" x2="139.8" y2="222.8"/>
	<line fill="none" stroke="#FFFFFF" stroke-miterlimit="10" x1="146.6" y1="201.6" x2="140" y2="206.5"/>
	<line fill="none" stroke="#FFFFFF" stroke-miterlimit="10" x1="165.9" y1="214.9" x2="163.4" y2="222.8"/>
	<line fill="none" stroke="#FFFFFF" stroke-miterlimit="10" x1="156.5" y1="201.6" x2="163.1" y2="206.5"/>
	<line fill="none" stroke="#FFFFFF" stroke-miterlimit="10" x1="147.5" y1="228.5" x2="155.7" y2="228.5"/>
	<line fill="none" stroke="#FFFFFF" stroke-miterlimit="10" x1="146.7" y1="224.7" x2="163.3" y2="213.3"/>
	<line fill="none" stroke="#FFFFFF" stroke-miterlimit="10" x1="143.4" y1="222.6" x2="149.3" y2="203.5"/>
	<line fill="none" stroke="#FFFFFF" stroke-miterlimit="10" x1="156.5" y1="224.7" x2="139.9" y2="213.3"/>
	<line fill="none" stroke="#FFFFFF" stroke-miterlimit="10" x1="159.8" y1="222.6" x2="153.9" y2="203.5"/>
	<line fill="none" stroke="#FFFFFF" stroke-miterlimit="10" x1="140.6" y1="209.9" x2="162.6" y2="209.9"/>
	
		<rect x="158.6" y="225.4" transform="matrix(0.7071 0.7071 -0.7071 0.7071 208.8078 -47.3712)" fill="#FFFFFF" width="5.9" height="5.9"/>
	
		<rect x="164.7" y="206.7" transform="matrix(0.7071 0.7071 -0.7071 0.7071 197.3814 -57.1604)" fill="#FFFFFF" width="5.9" height="5.9"/>
	
		<rect x="138.6" y="225.5" transform="matrix(0.707 0.7072 -0.7072 0.707 203.0889 -33.1931)" fill="#FFFFFF" width="6" height="6"/>
	
		<rect x="132.5" y="206.7" transform="matrix(0.7071 0.7071 -0.7071 0.7071 187.9346 -34.3558)" fill="#FFFFFF" width="6" height="6"/>
	
		<rect x="148.5" y="195.4" transform="matrix(0.7071 0.7071 -0.7071 0.7071 184.6316 -49.0476)" fill="#FFFFFF" width="5.9" height="5.9"/>
</g>
</svg>
