<?xml version="1.0" encoding="utf-8"?>
<!-- Generator: Adobe Illustrator 16.0.0, SVG Export Plug-In . SVG Version: 6.00 Build 0)  -->
<!DOCTYPE svg PUBLIC "-//W3C//DTD SVG 1.1//EN" "http://www.w3.org/Graphics/SVG/1.1/DTD/svg11.dtd">
<svg version="1.1" id="Ebene_1" xmlns="http://www.w3.org/2000/svg" xmlns:xlink="http://www.w3.org/1999/xlink" x="0px" y="0px"
	 width="499px" height="481.9px" viewBox="0 0 499 481.9" enable-background="new 0 0 499 481.9" xml:space="preserve">
<g>
	<g>
		<polyline fill="none" stroke="#FFFFFF" stroke-miterlimit="10" points="392.7,312.9 392.7,314.9 390.7,314.9 		"/>
		
			<line fill="none" stroke="#FFFFFF" stroke-miterlimit="10" stroke-dasharray="3.9855,3.9855" x1="386.7" y1="314.9" x2="117.7" y2="314.9"/>
		<polyline fill="none" stroke="#FFFFFF" stroke-miterlimit="10" points="115.7,314.9 113.7,314.9 113.7,312.9 		"/>
		
			<line fill="none" stroke="#FFFFFF" stroke-miterlimit="10" stroke-dasharray="3.9424,3.9424" x1="113.7" y1="309" x2="113.7" y2="129.6"/>
		<polyline fill="none" stroke="#FFFFFF" stroke-miterlimit="10" points="113.7,127.6 113.7,125.6 115.7,125.6 		"/>
		
			<line fill="none" stroke="#FFFFFF" stroke-miterlimit="10" stroke-dasharray="3.9855,3.9855" x1="119.7" y1="125.6" x2="388.7" y2="125.6"/>
		<polyline fill="none" stroke="#FFFFFF" stroke-miterlimit="10" points="390.7,125.6 392.7,125.6 392.7,127.6 		"/>
		
			<line fill="none" stroke="#FFFFFF" stroke-miterlimit="10" stroke-dasharray="3.9424,3.9424" x1="392.7" y1="131.6" x2="392.7" y2="311"/>
	</g>
</g>
<g>
	<g>
		<line fill="none" stroke="#FFFFFF" stroke-miterlimit="10" x1="253.7" y1="183.5" x2="253.7" y2="185"/>
		
			<line fill="none" stroke="#FFFFFF" stroke-miterlimit="10" stroke-dasharray="3.1007,4.1343" x1="253.7" y1="189.2" x2="253.7" y2="252.2"/>
		<line fill="none" stroke="#FFFFFF" stroke-miterlimit="10" x1="253.7" y1="254.3" x2="253.7" y2="255.8"/>
	</g>
</g>
<polygon fill="none" stroke="#FFFFFF" stroke-miterlimit="10" points="304.8,264.7 279,219.8 304.8,175 356.3,175 382,219.8 
	356.3,264.7 "/>
<polyline fill="none" stroke="#FFFFFF" stroke-miterlimit="10" points="293.1,239.7 253.8,261.9 253.8,309.7 "/>
<polyline fill="none" stroke="#FFFFFF" stroke-miterlimit="10" points="291,198.4 253.8,177.5 253.8,129.7 "/>
<circle fill="#FFFFFF" stroke="#FFFFFF" stroke-miterlimit="10" cx="253.7" cy="125.4" r="13.5"/>
<circle fill="#FFFFFF" stroke="#FFFFFF" stroke-miterlimit="10" cx="253.7" cy="35.4" r="13.5"/>
<circle fill="#FFFFFF" stroke="#FFFFFF" stroke-miterlimit="10" cx="253.7" cy="314.4" r="13.5"/>
<g>
	<line fill="none" stroke="#FFFFFF" stroke-miterlimit="10" x1="257.7" y1="66.3" x2="248.7" y2="66.3"/>
	<line fill="none" stroke="#FFFFFF" stroke-miterlimit="10" x1="257.7" y1="60.4" x2="248.7" y2="60.4"/>
	<line fill="none" stroke="#FFFFFF" stroke-miterlimit="10" x1="257.7" y1="72" x2="248.7" y2="72"/>
	<line fill="none" stroke="#FFFFFF" stroke-miterlimit="10" x1="257.7" y1="77.7" x2="248.7" y2="77.7"/>
	<line fill="none" stroke="#FFFFFF" stroke-miterlimit="10" x1="257.7" y1="83.3" x2="248.7" y2="83.3"/>
	<line fill="none" stroke="#FFFFFF" stroke-miterlimit="10" x1="257.7" y1="89" x2="248.7" y2="89"/>
	<line fill="none" stroke="#FFFFFF" stroke-miterlimit="10" x1="257.7" y1="94.7" x2="248.7" y2="94.7"/>
	<line fill="none" stroke="#FFFFFF" stroke-miterlimit="10" x1="257.7" y1="100.3" x2="248.7" y2="100.3"/>
</g>
<g>
	<line fill="none" stroke="#FFFFFF" stroke-miterlimit="10" x1="257.7" y1="345.6" x2="248.7" y2="345.6"/>
	<line fill="none" stroke="#FFFFFF" stroke-miterlimit="10" x1="257.7" y1="339.6" x2="248.7" y2="339.6"/>
	<line fill="none" stroke="#FFFFFF" stroke-miterlimit="10" x1="257.7" y1="351.2" x2="248.7" y2="351.2"/>
	<line fill="none" stroke="#FFFFFF" stroke-miterlimit="10" x1="257.7" y1="356.9" x2="248.7" y2="356.9"/>
	<line fill="none" stroke="#FFFFFF" stroke-miterlimit="10" x1="257.7" y1="362.6" x2="248.7" y2="362.6"/>
	<line fill="none" stroke="#FFFFFF" stroke-miterlimit="10" x1="257.7" y1="368.2" x2="248.7" y2="368.2"/>
	<line fill="none" stroke="#FFFFFF" stroke-miterlimit="10" x1="257.7" y1="373.9" x2="248.7" y2="373.9"/>
	<line fill="none" stroke="#FFFFFF" stroke-miterlimit="10" x1="257.7" y1="379.6" x2="248.7" y2="379.6"/>
</g>
<g>
	<line fill="none" stroke="#FFFFFF" stroke-miterlimit="10" x1="201.8" y1="372.3" x2="195.5" y2="365.9"/>
	<line fill="none" stroke="#FFFFFF" stroke-miterlimit="10" x1="206" y1="368.1" x2="199.7" y2="361.7"/>
	<line fill="none" stroke="#FFFFFF" stroke-miterlimit="10" x1="210" y1="364.1" x2="203.7" y2="357.7"/>
	<line fill="none" stroke="#FFFFFF" stroke-miterlimit="10" x1="214" y1="360.1" x2="207.7" y2="353.7"/>
	<line fill="none" stroke="#FFFFFF" stroke-miterlimit="10" x1="218" y1="356.1" x2="211.7" y2="349.7"/>
	<line fill="none" stroke="#FFFFFF" stroke-miterlimit="10" x1="222.1" y1="352.1" x2="215.7" y2="345.7"/>
	<line fill="none" stroke="#FFFFFF" stroke-miterlimit="10" x1="226.1" y1="348.1" x2="219.7" y2="341.7"/>
	<line fill="none" stroke="#FFFFFF" stroke-miterlimit="10" x1="230.1" y1="344" x2="223.7" y2="337.7"/>
	<line fill="none" stroke="#FFFFFF" stroke-miterlimit="10" x1="234.1" y1="340" x2="227.7" y2="333.7"/>
	<line fill="none" stroke="#FFFFFF" stroke-miterlimit="10" x1="238.1" y1="336" x2="231.7" y2="329.7"/>
	<line fill="none" stroke="#FFFFFF" stroke-miterlimit="10" x1="197.8" y1="376.3" x2="191.5" y2="369.9"/>
	<line fill="none" stroke="#FFFFFF" stroke-miterlimit="10" x1="193.8" y1="380.3" x2="187.4" y2="373.9"/>
</g>
<g>
	<line fill="none" stroke="#FFFFFF" stroke-miterlimit="10" x1="311.7" y1="365.9" x2="305.4" y2="372.3"/>
	<line fill="none" stroke="#FFFFFF" stroke-miterlimit="10" x1="307.5" y1="361.7" x2="301.2" y2="368.1"/>
	<line fill="none" stroke="#FFFFFF" stroke-miterlimit="10" x1="303.5" y1="357.7" x2="297.2" y2="364.1"/>
	<line fill="none" stroke="#FFFFFF" stroke-miterlimit="10" x1="299.5" y1="353.7" x2="293.1" y2="360.1"/>
	<line fill="none" stroke="#FFFFFF" stroke-miterlimit="10" x1="295.5" y1="349.7" x2="289.1" y2="356.1"/>
	<line fill="none" stroke="#FFFFFF" stroke-miterlimit="10" x1="291.5" y1="345.7" x2="285.1" y2="352.1"/>
	<line fill="none" stroke="#FFFFFF" stroke-miterlimit="10" x1="287.5" y1="341.7" x2="281.1" y2="348.1"/>
	<line fill="none" stroke="#FFFFFF" stroke-miterlimit="10" x1="283.5" y1="337.7" x2="277.1" y2="344"/>
	<line fill="none" stroke="#FFFFFF" stroke-miterlimit="10" x1="279.5" y1="333.7" x2="273.1" y2="340"/>
	<line fill="none" stroke="#FFFFFF" stroke-miterlimit="10" x1="275.5" y1="329.7" x2="269.1" y2="336"/>
	<line fill="none" stroke="#FFFFFF" stroke-miterlimit="10" x1="315.7" y1="369.9" x2="309.4" y2="376.3"/>
	<line fill="none" stroke="#FFFFFF" stroke-miterlimit="10" x1="319.7" y1="373.9" x2="313.4" y2="380.3"/>
</g>
<g>
	<rect x="221.7" y="390.9" fill="none" stroke="#FFFFFF" stroke-miterlimit="10" width="63" height="45"/>
	<line fill="none" stroke="#FFFFFF" stroke-miterlimit="10" x1="221.7" y1="399.9" x2="284.7" y2="399.9"/>
	<line fill="none" stroke="#FFFFFF" stroke-miterlimit="10" x1="230.7" y1="390.9" x2="230.7" y2="399.9"/>
</g>
<g>
	<rect x="311.7" y="390.9" fill="none" stroke="#FFFFFF" stroke-miterlimit="10" width="63" height="45"/>
	<line fill="none" stroke="#FFFFFF" stroke-miterlimit="10" x1="311.7" y1="399.9" x2="374.7" y2="399.9"/>
	<line fill="none" stroke="#FFFFFF" stroke-miterlimit="10" x1="320.7" y1="390.9" x2="320.7" y2="399.9"/>
</g>
<polygon fill="#FFFFFF" points="289.8,189.8 297.6,202 283.1,202.2 "/>
<polygon fill="#FFFFFF" points="299.4,244.3 284.9,244.4 292.5,232 "/>
<g>
	<rect x="131.7" y="390.9" fill="none" stroke="#FFFFFF" stroke-miterlimit="10" width="63" height="45"/>
	<line fill="none" stroke="#FFFFFF" stroke-miterlimit="10" x1="131.7" y1="399.9" x2="194.7" y2="399.9"/>
	<line fill="none" stroke="#FFFFFF" stroke-miterlimit="10" x1="140.7" y1="390.9" x2="140.7" y2="399.9"/>
</g>
<g>
	<polygon fill="#FFFFFF" stroke="#FFFFFF" stroke-miterlimit="10" points="343.6,236.7 318.1,236.7 318.1,199.7 336.2,199.7 
		343.6,207.2 	"/>
	<g>
		<line fill="none" stroke="#000000" stroke-width="2" stroke-miterlimit="10" x1="336.2" y1="221.3" x2="328.8" y2="221.3"/>
		<polyline fill="none" stroke="#000000" stroke-width="2" stroke-miterlimit="10" points="332.5,217.6 328.8,221.3 332.5,225 		"/>
	</g>
	<g>
		<polygon points="336.5,206.8 336.5,201.1 342.1,206.8 		"/>
		<path fill="#FFFFFF" d="M337,202.4l4,4h-4V202.4 M336,199.9v7.4h7.4L336,199.9L336,199.9z"/>
	</g>
	
		<rect x="337.7" y="215.5" transform="matrix(0.7071 0.7071 -0.7071 0.7071 257.2356 -178.1623)" stroke="#FFFFFF" stroke-miterlimit="10" width="11.9" height="11.9"/>
</g>
<rect x="362.7" y="423.7" transform="matrix(0.7071 0.7071 -0.7071 0.7071 409.1843 -133.7664)" fill="#FFFFFF" width="6.7" height="6.7"/>
<rect x="272.5" y="423.7" transform="matrix(0.7071 0.7071 -0.7071 0.7071 382.7792 -70.0191)" fill="#FFFFFF" width="6.7" height="6.7"/>
<rect x="182.7" y="423.7" transform="matrix(0.7071 0.7071 -0.7071 0.7071 356.4581 -6.4741)" fill="#FFFFFF" width="6.7" height="6.7"/>
<polygon fill="#FFFFFF" points="246.8,152.4 253.6,166 260.4,152.4 "/>
<polygon fill="#FFFFFF" points="246.8,276.8 253.6,290.4 260.4,276.8 "/>
</svg>
