<?xml version="1.0" encoding="utf-8"?>
<!-- Generator: Adobe Illustrator 16.0.0, SVG Export Plug-In . SVG Version: 6.00 Build 0)  -->
<!DOCTYPE svg PUBLIC "-//W3C//DTD SVG 1.1//EN" "http://www.w3.org/Graphics/SVG/1.1/DTD/svg11.dtd">
<svg version="1.1" id="Ebene_1" xmlns="http://www.w3.org/2000/svg" xmlns:xlink="http://www.w3.org/1999/xlink" x="0px" y="0px"
	 width="453.54px" height="340.16px" viewBox="0 0 453.54 340.16" enable-background="new 0 0 453.54 340.16" xml:space="preserve">
<rect x="48.166" y="38.833" fill="none" stroke="#FFFFFF" stroke-miterlimit="10" width="360" height="262"/>
<line fill="none" stroke="#FFFFFF" stroke-miterlimit="10" x1="48.666" y1="66.833" x2="408.666" y2="66.833"/>
<line fill="none" stroke="#FFFFFF" stroke-miterlimit="10" x1="48.666" y1="273.77" x2="408.666" y2="273.77"/>
<line fill="none" stroke="#FFFFFF" stroke-miterlimit="10" x1="348.5" y1="39" x2="348.5" y2="66"/>
<line fill="none" stroke="#FFFFFF" stroke-miterlimit="10" x1="265.802" y1="39.333" x2="265.802" y2="66.333"/>
<line fill="none" stroke="#FFFFFF" stroke-miterlimit="10" x1="166.596" y1="273.762" x2="166.596" y2="300.766"/>
<line fill="none" stroke="#FFFFFF" stroke-miterlimit="10" x1="326.749" y1="273.762" x2="326.749" y2="300.766"/>
<g>
	<path fill="#FFFFFF" d="M279.348,53.64c-0.024-0.792-0.42-1.463-1.547-1.463c-0.756,0-1.5,0.36-2.039,0.696l-0.385-0.672
		c0.588-0.384,1.572-0.839,2.592-0.839c1.595,0,2.362,0.947,2.362,2.398v3.574h-0.804l-0.084-0.792h-0.036
		c-0.647,0.503-1.476,0.936-2.303,0.936c-1.091,0-1.979-0.612-1.979-1.655C275.126,54.515,276.337,53.879,279.348,53.64z
		 M277.369,56.686c0.659,0,1.318-0.312,1.979-0.864v-1.535c-2.494,0.204-3.262,0.696-3.262,1.463
		C276.086,56.41,276.697,56.686,277.369,56.686z"/>
	<path fill="#FFFFFF" d="M284.725,51.361c0.707,0,1.223,0.288,1.763,0.755l-0.036-1.079v-2.243h0.983v8.539h-0.815l-0.084-0.768
		h-0.036c-0.479,0.492-1.175,0.912-1.896,0.912c-1.522,0-2.529-1.104-2.529-3.046C282.074,52.536,283.345,51.361,284.725,51.361z
		 M284.809,56.65c0.575,0,1.127-0.3,1.643-0.875v-2.902c-0.527-0.492-1.031-0.684-1.535-0.684c-1.008,0-1.822,0.899-1.822,2.23
		C283.094,55.811,283.729,56.65,284.809,56.65z"/>
	<path fill="#FFFFFF" d="M291.924,51.361c0.708,0,1.224,0.288,1.764,0.755l-0.036-1.079v-2.243h0.983v8.539h-0.815l-0.084-0.768
		h-0.036c-0.479,0.492-1.176,0.912-1.895,0.912c-1.523,0-2.531-1.104-2.531-3.046C289.273,52.536,290.545,51.361,291.924,51.361z
		 M292.008,56.65c0.576,0,1.128-0.3,1.644-0.875v-2.902c-0.528-0.492-1.031-0.684-1.535-0.684c-1.007,0-1.823,0.899-1.823,2.23
		C290.293,55.811,290.929,56.65,292.008,56.65z"/>
	<path fill="#FFFFFF" d="M305.053,57.825v1.967h-0.983v-8.287h0.815l0.084,0.744h0.036c0.54-0.516,1.296-0.888,2.015-0.888
		c1.571,0,2.411,1.163,2.411,2.974c0,1.979-1.247,3.143-2.651,3.143c-0.539,0-1.223-0.276-1.75-0.756L305.053,57.825z
		 M306.612,56.65c1.043,0,1.799-0.875,1.799-2.315c0-1.283-0.479-2.146-1.644-2.146c-0.516,0-1.115,0.276-1.715,0.875v2.902
		C305.604,56.458,306.217,56.65,306.612,56.65z"/>
	<path fill="#FFFFFF" d="M311.27,48.794h0.982v2.327l-0.047,1.379c0.623-0.647,1.295-1.139,2.207-1.139
		c1.379,0,2.014,0.815,2.014,2.351v3.622h-0.982v-3.49c0-1.103-0.385-1.631-1.344-1.631c-0.695,0-1.163,0.348-1.848,1.055v4.066
		h-0.982V48.794z"/>
	<path fill="#FFFFFF" d="M320.951,51.361c1.535,0,2.879,1.115,2.879,3.07c0,1.931-1.344,3.046-2.879,3.046s-2.878-1.116-2.878-3.046
		C318.073,52.476,319.416,51.361,320.951,51.361z M320.951,56.662c1.115,0,1.859-0.899,1.859-2.23c0-1.343-0.744-2.255-1.859-2.255
		s-1.858,0.912-1.858,2.255C319.093,55.762,319.836,56.662,320.951,56.662z"/>
	<path fill="#FFFFFF" d="M327.024,52.308h-1.644v-0.744l1.68-0.06l0.132-1.631h0.815v1.631h2.866v0.803h-2.866v2.771
		c0,1.043,0.348,1.595,1.475,1.595c0.553,0,0.996-0.108,1.404-0.264l0.215,0.719c-0.527,0.192-1.199,0.348-1.834,0.348
		c-1.691,0-2.243-0.972-2.243-2.411V52.308z"/>
	<path fill="#FFFFFF" d="M335.352,51.361c1.535,0,2.879,1.115,2.879,3.07c0,1.931-1.344,3.046-2.879,3.046s-2.879-1.116-2.879-3.046
		C332.473,52.476,333.816,51.361,335.352,51.361z M335.352,56.662c1.115,0,1.859-0.899,1.859-2.23c0-1.343-0.744-2.255-1.859-2.255
		s-1.859,0.912-1.859,2.255C333.492,55.762,334.236,56.662,335.352,56.662z"/>
</g>
<g>
	<path fill="#FFFFFF" d="M93.375,256.004h0.984v7.016h3.897v0.852h-4.881V256.004z"/>
	<path fill="#FFFFFF" d="M102.566,257.898c1.535,0,2.878,1.115,2.878,3.07c0,1.932-1.343,3.047-2.878,3.047
		s-2.878-1.115-2.878-3.047C99.688,259.014,101.031,257.898,102.566,257.898z M102.566,263.199c1.115,0,1.859-0.898,1.859-2.23
		c0-1.343-0.744-2.254-1.859-2.254c-1.116,0-1.859,0.911-1.859,2.254C100.708,262.301,101.451,263.199,102.566,263.199z"/>
	<path fill="#FFFFFF" d="M107.919,258.043h0.815l0.084,1.379h0.036c0.612-0.936,1.523-1.523,2.603-1.523
		c0.432,0,0.792,0.061,1.151,0.24l-0.228,0.852c-0.408-0.145-0.624-0.203-1.079-0.203c-0.875,0-1.703,0.455-2.399,1.666v3.418
		h-0.983V258.043z"/>
	<path fill="#FFFFFF" d="M117.158,257.898c1.667,0,2.65,1.092,2.65,2.734c0,0.205-0.012,0.42-0.036,0.564h-4.557
		c0.048,1.234,0.959,2.027,2.23,2.027c0.684,0,1.235-0.205,1.775-0.541l0.348,0.648c-0.576,0.371-1.307,0.684-2.243,0.684
		c-1.727,0-3.13-1.14-3.13-3.047C114.196,259.062,115.647,257.898,117.158,257.898z M118.897,260.489
		c0-1.163-0.647-1.812-1.727-1.812c-0.947,0-1.811,0.672-1.967,1.812H118.897z"/>
	<path fill="#FFFFFF" d="M121.288,258.043h0.768l0.084,0.768h0.036c0.288-0.54,0.648-0.912,1.308-0.912
		c0.587,0,0.959,0.336,1.103,1.008c0.348-0.611,0.732-1.008,1.379-1.008c0.804,0,1.271,0.637,1.271,1.799v4.174h-0.948v-4.09
		c0-0.684-0.204-1.031-0.636-1.031c-0.419,0-0.695,0.301-0.995,0.9v4.221h-0.792v-4.09c0-0.684-0.228-1.031-0.66-1.031
		c-0.408,0-0.672,0.301-0.972,0.9v4.221h-0.947V258.043z"/>
	<path fill="#FFFFFF" d="M136.047,258.043h3.694v5.828h-0.983v-5.025h-2.71V258.043z M138.35,256.088
		c0-0.468,0.335-0.768,0.792-0.768c0.444,0,0.792,0.3,0.792,0.768c0,0.455-0.348,0.756-0.792,0.756
		C138.686,256.844,138.35,256.543,138.35,256.088z"/>
	<path fill="#FFFFFF" d="M144.267,264.363v1.967h-0.983v-8.287h0.816l0.083,0.744h0.036c0.54-0.517,1.295-0.889,2.015-0.889
		c1.571,0,2.411,1.164,2.411,2.975c0,1.979-1.248,3.143-2.651,3.143c-0.54,0-1.223-0.275-1.751-0.756L144.267,264.363z
		 M145.826,263.188c1.043,0,1.799-0.875,1.799-2.314c0-1.283-0.48-2.146-1.643-2.146c-0.516,0-1.115,0.275-1.715,0.875v2.902
		C144.818,262.996,145.43,263.188,145.826,263.188z"/>
	<path fill="#FFFFFF" d="M150.711,262.457c0.647,0.479,1.367,0.791,2.411,0.791s1.559-0.408,1.559-0.912
		c0-0.455-0.468-0.779-1.895-1.127c-1.199-0.3-2.219-0.828-2.219-1.654c0-0.936,0.84-1.656,2.447-1.656
		c0.875,0,1.763,0.348,2.339,0.744l-0.48,0.636c-0.516-0.36-1.139-0.612-1.859-0.612c-1.091,0-1.439,0.385-1.439,0.84
		c0,0.48,0.72,0.768,1.775,1.031c1.571,0.396,2.327,0.852,2.327,1.739c0,0.948-0.923,1.739-2.591,1.739
		c-1.139,0-2.146-0.42-2.854-0.912L150.711,262.457z"/>
	<path fill="#FFFFFF" d="M162.624,263.871h-0.804l-0.084-1.02h-0.048c-0.587,0.684-1.271,1.164-2.171,1.164
		c-1.391,0-2.027-0.816-2.027-2.352v-3.621h0.996v3.49c0,1.104,0.372,1.631,1.343,1.631c0.671,0,1.164-0.324,1.811-1.08v-4.041
		h0.983V263.871z"/>
	<path fill="#FFFFFF" d="M164.487,258.043h0.768l0.084,0.768h0.036c0.288-0.54,0.648-0.912,1.308-0.912
		c0.587,0,0.959,0.336,1.103,1.008c0.348-0.611,0.732-1.008,1.379-1.008c0.804,0,1.271,0.637,1.271,1.799v4.174h-0.948v-4.09
		c0-0.684-0.204-1.031-0.636-1.031c-0.419,0-0.695,0.301-0.995,0.9v4.221h-0.792v-4.09c0-0.684-0.228-1.031-0.66-1.031
		c-0.408,0-0.672,0.301-0.972,0.9v4.221h-0.947V258.043z"/>
</g>
<g>
	<path fill="#FFFFFF" d="M61.694,51.361c0.948,0,1.643,0.384,2.123,0.852l-0.492,0.636c-0.48-0.42-0.983-0.672-1.595-0.672
		c-1.343,0-2.267,0.912-2.267,2.255c0,1.331,0.899,2.23,2.243,2.23c0.72,0,1.319-0.324,1.811-0.731l0.432,0.636
		c-0.636,0.576-1.451,0.912-2.314,0.912c-1.823,0-3.19-1.116-3.19-3.046C58.444,52.476,59.932,51.361,61.694,51.361z"/>
	<path fill="#FFFFFF" d="M68.283,51.361c1.535,0,2.878,1.115,2.878,3.07c0,1.931-1.343,3.046-2.878,3.046s-2.878-1.116-2.878-3.046
		C65.404,52.476,66.748,51.361,68.283,51.361z M68.283,56.662c1.115,0,1.859-0.899,1.859-2.23c0-1.343-0.744-2.255-1.859-2.255
		c-1.116,0-1.859,0.912-1.859,2.255C66.424,55.762,67.167,56.662,68.283,56.662z"/>
	<path fill="#FFFFFF" d="M72.604,51.505h0.768l0.084,0.768h0.036c0.288-0.54,0.648-0.912,1.308-0.912
		c0.587,0,0.959,0.336,1.103,1.007c0.348-0.612,0.732-1.007,1.379-1.007c0.804,0,1.271,0.636,1.271,1.799v4.174h-0.948v-4.09
		c0-0.684-0.204-1.031-0.635-1.031c-0.42,0-0.696,0.3-0.996,0.899v4.222h-0.792v-4.09c0-0.684-0.228-1.031-0.66-1.031
		c-0.408,0-0.672,0.3-0.972,0.899v4.222h-0.947V51.505z"/>
	<path fill="#FFFFFF" d="M81.183,57.825v1.967H80.2v-8.287h0.816l0.083,0.744h0.036c0.54-0.516,1.295-0.888,2.015-0.888
		c1.571,0,2.411,1.163,2.411,2.974c0,1.979-1.248,3.143-2.651,3.143c-0.54,0-1.223-0.276-1.751-0.756L81.183,57.825z M82.743,56.65
		c1.043,0,1.799-0.875,1.799-2.315c0-1.283-0.48-2.146-1.643-2.146c-0.516,0-1.115,0.276-1.715,0.875v2.902
		C81.735,56.458,82.347,56.65,82.743,56.65z"/>
	<path fill="#FFFFFF" d="M89.883,51.361c1.535,0,2.878,1.115,2.878,3.07c0,1.931-1.343,3.046-2.878,3.046s-2.878-1.116-2.878-3.046
		C87.004,52.476,88.348,51.361,89.883,51.361z M89.883,56.662c1.115,0,1.859-0.899,1.859-2.23c0-1.343-0.744-2.255-1.859-2.255
		c-1.116,0-1.859,0.912-1.859,2.255C88.024,55.762,88.767,56.662,89.883,56.662z"/>
	<path fill="#FFFFFF" d="M94.828,55.918c0.647,0.479,1.367,0.792,2.411,0.792s1.559-0.408,1.559-0.912
		c0-0.456-0.468-0.78-1.895-1.127c-1.199-0.3-2.219-0.828-2.219-1.655c0-0.936,0.84-1.655,2.447-1.655
		c0.875,0,1.763,0.348,2.339,0.744l-0.48,0.636c-0.516-0.36-1.139-0.612-1.859-0.612c-1.091,0-1.439,0.384-1.439,0.839
		c0,0.48,0.72,0.768,1.775,1.032c1.571,0.396,2.327,0.852,2.327,1.739c0,0.948-0.923,1.739-2.591,1.739
		c-1.139,0-2.146-0.42-2.854-0.912L94.828,55.918z"/>
	<path fill="#FFFFFF" d="M103.155,52.308h-1.643v-0.744l1.679-0.06l0.132-1.631h0.815v1.631h2.866v0.803h-2.866v2.771
		c0,1.043,0.348,1.595,1.475,1.595c0.552,0,0.996-0.108,1.403-0.264l0.216,0.719c-0.528,0.192-1.199,0.348-1.835,0.348
		c-1.691,0-2.243-0.972-2.243-2.411V52.308z"/>
</g>
<g>
	<path fill="#FFFFFF" d="M63.817,290.943v0.815H58.66v-0.815h2.171v-5.637H59.2v-0.636c0.816-0.12,1.403-0.312,1.883-0.563h0.731
		v6.836H63.817z"/>
	<path fill="#FFFFFF" d="M68.283,289.876c0.54,0,0.971,0.407,0.971,1.02c0,0.6-0.432,1.007-0.971,1.007
		c-0.54,0-0.972-0.407-0.972-1.007C67.311,290.283,67.743,289.876,68.283,289.876z"/>
	<path fill="#FFFFFF" d="M83.294,285.786c0.948,0,1.643,0.384,2.123,0.852l-0.492,0.636c-0.48-0.42-0.983-0.672-1.595-0.672
		c-1.343,0-2.267,0.912-2.267,2.255c0,1.331,0.899,2.23,2.243,2.23c0.72,0,1.319-0.323,1.811-0.731l0.432,0.636
		c-0.636,0.575-1.451,0.911-2.314,0.911c-1.823,0-3.19-1.115-3.19-3.046C80.044,286.901,81.531,285.786,83.294,285.786z"/>
	<path fill="#FFFFFF" d="M87.4,283.22h0.983v2.327l-0.048,1.379c0.624-0.648,1.295-1.14,2.207-1.14c1.379,0,2.015,0.815,2.015,2.351
		v3.622h-0.983v-3.49c0-1.103-0.384-1.631-1.343-1.631c-0.696,0-1.164,0.348-1.847,1.056v4.065H87.4V283.22z"/>
	<path fill="#FFFFFF" d="M97.083,285.786c1.535,0,2.878,1.115,2.878,3.07c0,1.931-1.343,3.046-2.878,3.046s-2.878-1.115-2.878-3.046
		C94.204,286.901,95.547,285.786,97.083,285.786z M97.083,291.087c1.115,0,1.859-0.899,1.859-2.23c0-1.343-0.744-2.255-1.859-2.255
		c-1.116,0-1.859,0.912-1.859,2.255C95.224,290.188,95.967,291.087,97.083,291.087z"/>
	<path fill="#FFFFFF" d="M104.282,285.786c1.535,0,2.878,1.115,2.878,3.07c0,1.931-1.343,3.046-2.878,3.046
		s-2.878-1.115-2.878-3.046C101.404,286.901,102.747,285.786,104.282,285.786z M104.282,291.087c1.115,0,1.859-0.899,1.859-2.23
		c0-1.343-0.744-2.255-1.859-2.255c-1.116,0-1.859,0.912-1.859,2.255C102.423,290.188,103.167,291.087,104.282,291.087z"/>
	<path fill="#FFFFFF" d="M109.228,290.344c0.647,0.479,1.367,0.791,2.411,0.791s1.559-0.407,1.559-0.911
		c0-0.456-0.468-0.78-1.895-1.128c-1.199-0.299-2.219-0.827-2.219-1.654c0-0.936,0.84-1.655,2.447-1.655
		c0.875,0,1.763,0.348,2.339,0.743l-0.48,0.637c-0.516-0.36-1.139-0.612-1.859-0.612c-1.091,0-1.439,0.384-1.439,0.839
		c0,0.48,0.719,0.768,1.775,1.032c1.571,0.396,2.327,0.852,2.327,1.739c0,0.947-0.923,1.738-2.591,1.738
		c-1.139,0-2.146-0.42-2.854-0.911L109.228,290.344z"/>
	<path fill="#FFFFFF" d="M118.874,285.786c1.667,0,2.65,1.091,2.65,2.734c0,0.204-0.012,0.42-0.036,0.563h-4.557
		c0.048,1.235,0.959,2.027,2.23,2.027c0.684,0,1.235-0.204,1.775-0.54l0.348,0.647c-0.576,0.372-1.308,0.684-2.243,0.684
		c-1.727,0-3.13-1.139-3.13-3.046S117.363,285.786,118.874,285.786z M120.613,288.377c0-1.164-0.647-1.812-1.727-1.812
		c-0.947,0-1.811,0.672-1.967,1.812H120.613z"/>
	<path fill="#FFFFFF" d="M136.188,284.154c-0.479-0.215-0.852-0.275-1.355-0.275c-1.043,0-1.475,0.576-1.475,1.523v0.527h2.446
		v0.804h-2.446v5.025h-0.972v-5.025h-1.667v-0.743l1.667-0.061v-0.491c0-1.427,0.744-2.362,2.351-2.362
		c0.576,0,1.127,0.107,1.679,0.335L136.188,284.154z"/>
	<path fill="#FFFFFF" d="M137.763,285.93h3.694v5.829h-0.983v-5.025h-2.71V285.93z M140.066,283.975
		c0-0.467,0.335-0.768,0.792-0.768c0.444,0,0.792,0.301,0.792,0.768c0,0.456-0.348,0.756-0.792,0.756
		C140.401,284.73,140.066,284.431,140.066,283.975z"/>
	<path fill="#FFFFFF" d="M144.855,283.22h2.974v6.656c0,0.852,0.444,1.211,1.139,1.211c0.336,0,0.672-0.083,1.104-0.275l0.252,0.743
		c-0.528,0.191-0.936,0.348-1.571,0.348c-1.235,0-1.907-0.719-1.907-2.099v-5.78h-1.991V283.22z"/>
	<path fill="#FFFFFF" d="M154.874,285.786c1.667,0,2.65,1.091,2.65,2.734c0,0.204-0.012,0.42-0.036,0.563h-4.557
		c0.048,1.235,0.959,2.027,2.23,2.027c0.684,0,1.235-0.204,1.775-0.54l0.348,0.647c-0.576,0.372-1.307,0.684-2.243,0.684
		c-1.727,0-3.13-1.139-3.13-3.046S153.362,285.786,154.874,285.786z M156.612,288.377c0-1.164-0.647-1.812-1.727-1.812
		c-0.947,0-1.811,0.672-1.967,1.812H156.612z"/>
</g>
<g>
	<path fill="#FFFFFF" d="M176.565,291.171c2.591-2.29,4.018-3.634,4.018-4.905c0-0.875-0.54-1.499-1.667-1.499
		c-0.719,0-1.343,0.407-1.835,0.923l-0.563-0.562c0.684-0.696,1.439-1.164,2.519-1.164c1.535,0,2.495,0.9,2.495,2.255
		c0,1.439-1.439,2.866-3.526,4.761c0.467-0.035,0.971-0.071,1.427-0.071h2.519v0.852h-5.385V291.171z"/>
	<path fill="#FFFFFF" d="M186.488,289.876c0.54,0,0.971,0.407,0.971,1.02c0,0.6-0.432,1.007-0.971,1.007
		c-0.54,0-0.972-0.407-0.972-1.007C185.516,290.283,185.948,289.876,186.488,289.876z"/>
	<path fill="#FFFFFF" d="M197.385,285.93h1.008l0.708,3.371c0.108,0.551,0.204,1.078,0.288,1.619h0.048
		c0.108-0.541,0.216-1.08,0.348-1.619l0.708-3.023h0.84l0.719,3.023c0.132,0.551,0.24,1.078,0.36,1.619h0.048
		c0.108-0.541,0.192-1.068,0.288-1.619l0.708-3.371h0.936l-1.271,5.829h-1.187l-0.696-2.95c-0.108-0.552-0.204-1.104-0.324-1.691
		h-0.048c-0.096,0.504-0.18,1.031-0.324,1.703l-0.671,2.938h-1.175L197.385,285.93z"/>
	<path fill="#FFFFFF" d="M206.241,285.93h0.815l0.084,1.379h0.036c0.612-0.936,1.523-1.522,2.603-1.522
		c0.432,0,0.792,0.06,1.151,0.239l-0.228,0.852c-0.408-0.144-0.624-0.203-1.079-0.203c-0.875,0-1.703,0.455-2.399,1.667v3.418
		h-0.983V285.93z"/>
	<path fill="#FFFFFF" d="M212.769,285.93h3.694v5.829h-0.983v-5.025h-2.71V285.93z M215.072,283.975
		c0-0.467,0.335-0.768,0.792-0.768c0.444,0,0.792,0.301,0.792,0.768c0,0.456-0.348,0.756-0.792,0.756
		C215.407,284.73,215.072,284.431,215.072,283.975z"/>
	<path fill="#FFFFFF" d="M221.36,286.733h-1.643v-0.743l1.679-0.061l0.132-1.631h0.815v1.631h2.866v0.804h-2.866v2.771
		c0,1.043,0.348,1.596,1.475,1.596c0.552,0,0.996-0.108,1.403-0.264l0.216,0.719c-0.528,0.191-1.199,0.348-1.835,0.348
		c-1.691,0-2.243-0.971-2.243-2.41V286.733z"/>
	<path fill="#FFFFFF" d="M229.879,285.786c1.668,0,2.65,1.091,2.65,2.734c0,0.204-0.012,0.42-0.035,0.563h-4.558
		c0.048,1.235,0.96,2.027,2.23,2.027c0.684,0,1.235-0.204,1.774-0.54l0.349,0.647c-0.575,0.372-1.308,0.684-2.243,0.684
		c-1.727,0-3.13-1.139-3.13-3.046S228.368,285.786,229.879,285.786z M231.618,288.377c0-1.164-0.647-1.812-1.728-1.812
		c-0.947,0-1.811,0.672-1.966,1.812H231.618z"/>
	<path fill="#FFFFFF" d="M244.698,285.786c0.948,0,1.644,0.384,2.123,0.852l-0.491,0.636c-0.48-0.42-0.984-0.672-1.596-0.672
		c-1.344,0-2.267,0.912-2.267,2.255c0,1.331,0.899,2.23,2.243,2.23c0.719,0,1.318-0.323,1.811-0.731l0.432,0.636
		c-0.636,0.575-1.451,0.911-2.314,0.911c-1.823,0-3.19-1.115-3.19-3.046C241.448,286.901,242.936,285.786,244.698,285.786z"/>
	<path fill="#FFFFFF" d="M252.883,288.064c-0.025-0.791-0.42-1.463-1.548-1.463c-0.755,0-1.499,0.359-2.039,0.695l-0.384-0.672
		c0.588-0.383,1.571-0.839,2.591-0.839c1.595,0,2.362,0.947,2.362,2.398v3.574h-0.803l-0.084-0.792h-0.037
		c-0.646,0.504-1.475,0.936-2.303,0.936c-1.091,0-1.979-0.611-1.979-1.654C248.66,288.94,249.871,288.305,252.883,288.064z
		 M250.903,291.111c0.659,0,1.319-0.312,1.979-0.863v-1.535c-2.495,0.203-3.263,0.695-3.263,1.463
		C249.62,290.836,250.231,291.111,250.903,291.111z"/>
	<path fill="#FFFFFF" d="M256.987,292.25v1.967h-0.983v-8.287h0.816l0.084,0.744h0.035c0.539-0.516,1.295-0.888,2.016-0.888
		c1.57,0,2.41,1.163,2.41,2.974c0,1.979-1.248,3.143-2.65,3.143c-0.54,0-1.224-0.275-1.752-0.756L256.987,292.25z M258.547,291.075
		c1.043,0,1.799-0.876,1.799-2.315c0-1.283-0.48-2.146-1.643-2.146c-0.516,0-1.115,0.276-1.716,0.876v2.902
		C257.539,290.883,258.15,291.075,258.547,291.075z"/>
	<path fill="#FFFFFF" d="M264.559,286.733h-1.643v-0.743l1.68-0.061l0.131-1.631h0.816v1.631h2.865v0.804h-2.865v2.771
		c0,1.043,0.348,1.596,1.475,1.596c0.552,0,0.996-0.108,1.403-0.264l0.216,0.719c-0.527,0.191-1.199,0.348-1.835,0.348
		c-1.69,0-2.243-0.971-2.243-2.41V286.733z"/>
	<path fill="#FFFFFF" d="M270.368,285.93h3.694v5.829h-0.984v-5.025h-2.71V285.93z M272.671,283.975
		c0-0.467,0.335-0.768,0.792-0.768c0.443,0,0.791,0.301,0.791,0.768c0,0.456-0.348,0.756-0.791,0.756
		C273.006,284.73,272.671,284.431,272.671,283.975z"/>
	<path fill="#FFFFFF" d="M280.086,285.786c1.535,0,2.879,1.115,2.879,3.07c0,1.931-1.344,3.046-2.879,3.046
		s-2.878-1.115-2.878-3.046C277.208,286.901,278.551,285.786,280.086,285.786z M280.086,291.087c1.115,0,1.859-0.899,1.859-2.23
		c0-1.343-0.744-2.255-1.859-2.255s-1.858,0.912-1.858,2.255C278.228,290.188,278.971,291.087,280.086,291.087z"/>
	<path fill="#FFFFFF" d="M284.804,285.93h0.815l0.084,0.996h0.049c0.611-0.648,1.283-1.14,2.194-1.14
		c1.379,0,2.015,0.815,2.015,2.351v3.622h-0.983v-3.49c0-1.103-0.384-1.631-1.343-1.631c-0.696,0-1.164,0.348-1.848,1.056v4.065
		h-0.983V285.93z"/>
</g>
<g>
	<path fill="#FFFFFF" d="M336.582,290.176c0.504,0.479,1.211,0.911,2.195,0.911c1.043,0,1.834-0.552,1.834-1.403
		c0-0.911-0.768-1.523-2.782-1.523v-0.755c1.812,0,2.507-0.624,2.507-1.427c0-0.744-0.624-1.212-1.559-1.212
		c-0.721,0-1.38,0.323-1.884,0.78l-0.527-0.625c0.636-0.551,1.463-0.959,2.446-0.959c1.439,0,2.531,0.708,2.531,1.943
		c0,0.924-0.684,1.511-1.632,1.822v0.049c1.02,0.215,1.896,0.887,1.896,1.942c0,1.355-1.248,2.183-2.771,2.183
		c-1.318,0-2.194-0.516-2.758-1.079L336.582,290.176z"/>
	<path fill="#FFFFFF" d="M346.192,289.876c0.54,0,0.972,0.407,0.972,1.02c0,0.6-0.432,1.007-0.972,1.007s-0.972-0.407-0.972-1.007
		C345.221,290.283,345.652,289.876,346.192,289.876z"/>
	<path fill="#FFFFFF" d="M363.051,291.759h-0.804l-0.084-1.02h-0.048c-0.588,0.684-1.271,1.163-2.171,1.163
		c-1.392,0-2.026-0.815-2.026-2.351v-3.622h0.995v3.49c0,1.104,0.372,1.631,1.343,1.631c0.672,0,1.164-0.323,1.812-1.079v-4.042
		h0.983V291.759z"/>
	<path fill="#FFFFFF" d="M366.293,292.25v1.967h-0.983v-8.287h0.815l0.084,0.744h0.036c0.54-0.516,1.296-0.888,2.015-0.888
		c1.571,0,2.411,1.163,2.411,2.974c0,1.979-1.247,3.143-2.651,3.143c-0.539,0-1.223-0.275-1.75-0.756L366.293,292.25z
		 M367.853,291.075c1.043,0,1.799-0.876,1.799-2.315c0-1.283-0.479-2.146-1.644-2.146c-0.516,0-1.115,0.276-1.715,0.876v2.902
		C366.845,290.883,367.457,291.075,367.853,291.075z"/>
	<path fill="#FFFFFF" d="M372.365,283.22h2.975v6.656c0,0.852,0.443,1.211,1.14,1.211c0.335,0,0.671-0.083,1.103-0.275l0.252,0.743
		c-0.527,0.191-0.936,0.348-1.57,0.348c-1.236,0-1.907-0.719-1.907-2.099v-5.78h-1.991V283.22z"/>
	<path fill="#FFFFFF" d="M382.191,285.786c1.535,0,2.879,1.115,2.879,3.07c0,1.931-1.344,3.046-2.879,3.046
		s-2.878-1.115-2.878-3.046C379.313,286.901,380.656,285.786,382.191,285.786z M382.191,291.087c1.115,0,1.859-0.899,1.859-2.23
		c0-1.343-0.744-2.255-1.859-2.255s-1.858,0.912-1.858,2.255C380.333,290.188,381.076,291.087,382.191,291.087z"/>
	<path fill="#FFFFFF" d="M390.987,288.064c-0.024-0.791-0.42-1.463-1.548-1.463c-0.755,0-1.498,0.359-2.039,0.695l-0.383-0.672
		c0.588-0.383,1.57-0.839,2.59-0.839c1.596,0,2.363,0.947,2.363,2.398v3.574h-0.804l-0.084-0.792h-0.036
		c-0.647,0.504-1.475,0.936-2.303,0.936c-1.092,0-1.979-0.611-1.979-1.654C386.766,288.94,387.977,288.305,390.987,288.064z
		 M389.008,291.111c0.66,0,1.32-0.312,1.979-0.863v-1.535c-2.495,0.203-3.263,0.695-3.263,1.463
		C387.725,290.836,388.336,291.111,389.008,291.111z"/>
	<path fill="#FFFFFF" d="M396.363,285.786c0.708,0,1.224,0.288,1.764,0.755l-0.036-1.078v-2.243h0.983v8.539h-0.815l-0.084-0.768
		h-0.036c-0.479,0.491-1.176,0.911-1.895,0.911c-1.523,0-2.531-1.104-2.531-3.046C393.713,286.961,394.984,285.786,396.363,285.786z
		 M396.447,291.075c0.576,0,1.128-0.3,1.644-0.876v-2.902c-0.528-0.491-1.031-0.684-1.535-0.684c-1.007,0-1.823,0.9-1.823,2.23
		C394.732,290.236,395.368,291.075,396.447,291.075z"/>
</g>
<g>
	<path fill="#FFFFFF" d="M357.502,48.794h2.975v6.656c0,0.852,0.443,1.211,1.139,1.211c0.336,0,0.672-0.083,1.104-0.275l0.252,0.743
		c-0.527,0.192-0.936,0.348-1.57,0.348c-1.236,0-1.907-0.72-1.907-2.099v-5.781h-1.991V48.794z"/>
	<path fill="#FFFFFF" d="M367.328,51.361c1.535,0,2.879,1.115,2.879,3.07c0,1.931-1.344,3.046-2.879,3.046s-2.878-1.116-2.878-3.046
		C364.45,52.476,365.793,51.361,367.328,51.361z M367.328,56.662c1.115,0,1.859-0.899,1.859-2.23c0-1.343-0.744-2.255-1.859-2.255
		s-1.858,0.912-1.858,2.255C365.47,55.762,366.213,56.662,367.328,56.662z"/>
	<path fill="#FFFFFF" d="M372.754,57.105v-0.048c-0.312-0.168-0.6-0.468-0.6-0.959c0-0.372,0.252-0.792,0.695-1.091v-0.048
		c-0.396-0.3-0.72-0.816-0.72-1.511c0-1.271,1.056-2.087,2.291-2.087c0.335,0,0.611,0.048,0.863,0.144h2.411v0.755h-1.56
		c0.276,0.288,0.54,0.708,0.54,1.223c0,1.248-0.996,2.003-2.255,2.003c-0.3,0-0.659-0.072-0.983-0.216
		c-0.288,0.18-0.456,0.396-0.456,0.672c0,0.468,0.444,0.671,1.212,0.671h1.307c1.5,0,2.219,0.384,2.219,1.367
		c0,1.092-1.26,2.039-3.238,2.039c-1.703,0-2.686-0.588-2.686-1.619C371.795,57.933,372.13,57.465,372.754,57.105z M374.553,59.336
		c1.355,0,2.195-0.6,2.195-1.199c0-0.552-0.444-0.708-1.332-0.708h-1.139c-0.336,0-0.637-0.024-0.889-0.096
		c-0.551,0.3-0.743,0.636-0.743,0.972C372.646,58.917,373.305,59.336,374.553,59.336z M375.764,53.448
		c0-0.815-0.6-1.367-1.343-1.367c-0.731,0-1.343,0.552-1.343,1.367c0,0.839,0.611,1.379,1.343,1.379
		C375.164,54.827,375.764,54.287,375.764,53.448z"/>
	<path fill="#FFFFFF" d="M381.729,51.361c1.535,0,2.879,1.115,2.879,3.07c0,1.931-1.344,3.046-2.879,3.046s-2.879-1.116-2.879-3.046
		C378.85,52.476,380.193,51.361,381.729,51.361z M381.729,56.662c1.115,0,1.859-0.899,1.859-2.23c0-1.343-0.744-2.255-1.859-2.255
		s-1.859,0.912-1.859,2.255C379.869,55.762,380.613,56.662,381.729,56.662z"/>
	<path fill="#FFFFFF" d="M391.387,57.333h-0.803l-0.084-1.02h-0.049c-0.587,0.684-1.271,1.164-2.17,1.164
		c-1.392,0-2.027-0.816-2.027-2.351v-3.622h0.996v3.49c0,1.104,0.371,1.631,1.343,1.631c0.671,0,1.163-0.324,1.812-1.08v-4.042
		h0.982V57.333z"/>
	<path fill="#FFFFFF" d="M395.001,52.308h-1.644v-0.744l1.68-0.06l0.132-1.631h0.815v1.631h2.866v0.803h-2.866v2.771
		c0,1.043,0.348,1.595,1.475,1.595c0.553,0,0.996-0.108,1.404-0.264l0.215,0.719c-0.527,0.192-1.199,0.348-1.834,0.348
		c-1.691,0-2.243-0.972-2.243-2.411V52.308z"/>
</g>
<rect x="93.916" y="93.833" fill="none" stroke="#FFFFFF" stroke-miterlimit="10" width="261.25" height="134"/>
<rect x="93.916" y="237.188" fill="none" stroke="#FFFFFF" stroke-miterlimit="10" width="261.25" height="9.668"/>
<rect x="93.916" y="237.188" fill="#FFFFFF" stroke="#FFFFFF" stroke-miterlimit="10" width="180.25" height="9.668"/>
<line fill="none" stroke="#FFFFFF" stroke-miterlimit="10" x1="93.916" y1="227.834" x2="355.166" y2="93.833"/>
<line fill="none" stroke="#FFFFFF" stroke-miterlimit="10" x1="355.166" y1="227.834" x2="93.916" y2="93.833"/>
<rect x="93.916" y="93.833" fill="#FFFFFF" stroke="#FFFFFF" stroke-miterlimit="10" width="26.418" height="54"/>
<g>
	<circle cx="108.75" cy="137.862" r="1.82"/>
	<circle cx="103.35" cy="134.262" r="1.82"/>
	<circle cx="108.75" cy="130.662" r="1.82"/>
	<line stroke="#000000" stroke-miterlimit="10" x1="103.424" y1="134.336" x2="108.799" y2="130.561"/>
	<line stroke="#000000" stroke-miterlimit="10" x1="103.424" y1="134.306" x2="108.799" y2="138.081"/>
</g>
<line fill="none" stroke="#FFFFFF" stroke-miterlimit="10" x1="120.769" y1="120.333" x2="93.769" y2="120.333"/>
<line fill="none" stroke="#FFFFFF" stroke-miterlimit="10" x1="265.802" y1="39.333" x2="265.802" y2="66.333"/>
<g>
	<line fill="none" stroke="#000000" stroke-miterlimit="10" x1="103.916" y1="104.03" x2="110.666" y2="110.78"/>
	<line fill="none" stroke="#000000" stroke-miterlimit="10" x1="110.666" y1="104.03" x2="103.916" y2="110.78"/>
</g>
</svg>
