<svg xmlns="http://www.w3.org/2000/svg" width="300" height="200"><g><path color="#000" fill="#fff" stroke-width="3" overflow="visible" enable-background="accumulate" d="M138.008 45.994h134.805v19.493h-134.805z"/><path d="M113.97 88.805l27.772-27.771" fill="none" stroke="#fff" stroke-width="3"/><path d="M125.232 117.459c0 22.524-18.26 40.784-40.784 40.784-22.524 0-40.784-18.26-40.784-40.784 0-22.524 18.26-40.784 40.784-40.784 22.524 0 40.784 18.26 40.784 40.784z" color="#000" stroke="#fff" stroke-width="2.9980499999999997" overflow="visible" enable-background="accumulate"/><path color="#000" fill="#fff" stroke-width="3" overflow="visible" enable-background="accumulate" d="M138.008 29.994h99.09v19.493h-99.09z"/><g style="text-align:center;line-height:125%;-inkscape-font-specification:Monospace" font-size="12" letter-spacing="0" word-spacing="0" text-anchor="start" font-family="Source Code Pro" font-weight="500"><path d="M148.682 43.093v-6.672h-.888c-.504.276-1.092.468-1.92.6v.744h1.62v5.328h-2.124v.972h5.232v-.972h-1.92" style="text-align:start;line-height:125%;-inkscape-font-specification:Source Code Pro Medium"/><path d="M154.809 40.249c-.96 0-1.5-.516-1.5-1.488s.672-1.56 1.5-1.56c.984 0 1.656.672 1.812 2.088-.6.696-1.26.96-1.812.96m-2.472 3.12c.504.468 1.236.84 2.208.84 1.668 0 3.228-1.212 3.228-4.224 0-2.52-1.332-3.708-2.976-3.708-1.392 0-2.604.984-2.604 2.484 0 1.584.984 2.364 2.376 2.364.72 0 1.488-.36 2.088-.96-.048 2.28-1.056 3.072-2.196 3.072-.564 0-1.104-.24-1.476-.6l-.648.732" style="text-align:start;line-height:125%;-inkscape-font-specification:Source Code Pro Medium"/><path d="M159.461 44.065h5.472v-1.008h-2.34c-.432 0-.948.036-1.404.072 1.92-1.74 3.336-3.156 3.336-4.56 0-1.38-.996-2.292-2.544-2.292-1.104 0-1.86.444-2.58 1.176l.672.66c.468-.48 1.068-.888 1.752-.888 1.044 0 1.56.564 1.56 1.404 0 1.236-1.428 2.568-3.924 4.74v.696" style="text-align:start;line-height:125%;-inkscape-font-specification:Source Code Pro Medium"/><path d="M168.348 43.093c0 .66.468 1.116 1.08 1.116.612 0 1.08-.456 1.08-1.116 0-.648-.468-1.116-1.08-1.116-.612 0-1.08.468-1.08 1.116" style="text-align:start;line-height:125%;-inkscape-font-specification:Source Code Pro Medium"/><path d="M177.463 43.093v-6.672h-.888c-.504.276-1.092.468-1.92.6v.744h1.62v5.328h-2.124v.972h5.232v-.972h-1.92" style="text-align:start;line-height:125%;-inkscape-font-specification:Source Code Pro Medium"/><path d="M184.047 43.285c-.984 0-1.656-.672-1.812-2.088.6-.696 1.26-.96 1.812-.96.96 0 1.5.516 1.5 1.488s-.672 1.56-1.5 1.56m2.484-6.168c-.516-.468-1.248-.84-2.22-.84-1.668 0-3.216 1.212-3.216 4.224 0 2.52 1.32 3.708 2.964 3.708 1.392 0 2.604-.984 2.604-2.484 0-1.584-.984-2.364-2.376-2.364-.72 0-1.488.36-2.088.96.048-2.28 1.056-3.072 2.196-3.072.564 0 1.104.24 1.488.6l.648-.732" style="text-align:start;line-height:125%;-inkscape-font-specification:Source Code Pro Medium"/><path d="M189.274 41.989c0-.696.492-1.176 1.164-1.548 1.272.444 2.256.696 2.256 1.668 0 .756-.612 1.236-1.632 1.236-1.08 0-1.788-.552-1.788-1.356m2.34-2.16c-1.08-.348-1.896-.72-1.896-1.548 0-.708.552-1.14 1.332-1.14.912 0 1.416.54 1.416 1.26 0 .516-.288.984-.852 1.428m-3.408 2.28c0 1.224 1.092 2.1 2.832 2.1 1.776 0 2.784-.9 2.784-2.064 0-1.068-.66-1.572-1.488-1.98v-.048c.624-.432 1.152-1.068 1.152-1.788 0-1.212-.912-2.052-2.412-2.052-1.404 0-2.424.792-2.424 2.004 0 .804.516 1.38 1.152 1.788v.048c-.816.384-1.596.972-1.596 1.992" style="text-align:start;line-height:125%;-inkscape-font-specification:Source Code Pro Medium"/><path d="M197.129 43.093c0 .66.468 1.116 1.08 1.116.612 0 1.08-.456 1.08-1.116 0-.648-.468-1.116-1.08-1.116-.612 0-1.08.468-1.08 1.116" style="text-align:start;line-height:125%;-inkscape-font-specification:Source Code Pro Medium"/><path d="M202.632 44.065h5.472v-1.008h-2.34c-.432 0-.948.036-1.404.072 1.92-1.74 3.336-3.156 3.336-4.56 0-1.38-.996-2.292-2.544-2.292-1.104 0-1.86.444-2.58 1.176l.672.66c.468-.48 1.068-.888 1.752-.888 1.044 0 1.56.564 1.56 1.404 0 1.236-1.428 2.568-3.924 4.74v.696" style="text-align:start;line-height:125%;-inkscape-font-specification:Source Code Pro Medium"/><path d="M211.52 43.093c0 .66.468 1.116 1.08 1.116.612 0 1.08-.456 1.08-1.116 0-.648-.468-1.116-1.08-1.116-.612 0-1.08.468-1.08 1.116" style="text-align:start;line-height:125%;-inkscape-font-specification:Source Code Pro Medium"/><path d="M217.023 44.065h5.472v-1.008h-2.34c-.432 0-.948.036-1.404.072 1.92-1.74 3.336-3.156 3.336-4.56 0-1.38-.996-2.292-2.544-2.292-1.104 0-1.86.444-2.58 1.176l.672.66c.468-.48 1.068-.888 1.752-.888 1.044 0 1.56.564 1.56 1.404 0 1.236-1.428 2.568-3.924 4.74v.696" style="text-align:start;line-height:125%;-inkscape-font-specification:Source Code Pro Medium"/><path d="M224.026 43.129c.564.588 1.464 1.08 2.784 1.08 1.548 0 2.844-.816 2.844-2.196 0-1.032-.852-1.692-1.86-1.92v-.048c.948-.324 1.596-.9 1.596-1.788 0-1.26-1.104-1.98-2.616-1.98-.984 0-1.812.396-2.472.96l.624.744c.504-.444 1.116-.756 1.8-.756.876 0 1.464.432 1.464 1.116 0 .756-.66 1.32-2.4 1.32v.888c1.956 0 2.664.564 2.664 1.404 0 .792-.744 1.284-1.728 1.284-.912 0-1.608-.408-2.112-.876l-.588.768" style="text-align:start;line-height:125%;-inkscape-font-specification:Source Code Pro Medium"/><path d="M145.55 59.065h1.392l.588-2.688c.132-.72.204-1.236.288-1.716h.048c.108.6.192 1.152.3 1.704l.6 2.7h1.416l1.176-5.868h-1.104l-.624 3.216c-.096.564-.156 1.104-.264 1.668h-.048c-.108-.564-.216-1.104-.336-1.668l-.648-2.748h-.936l-.624 2.748c-.12.552-.228 1.104-.324 1.668h-.048c-.084-.564-.156-1.104-.264-1.668l-.624-3.216h-1.188l1.224 5.868" style="text-align:start;line-height:125%;-inkscape-font-specification:Source Code Pro Medium"/><path d="M152.745 59.065h1.392l.588-2.688c.132-.72.204-1.236.288-1.716h.048c.108.6.192 1.152.3 1.704l.6 2.7h1.416l1.176-5.868h-1.104l-.624 3.216c-.096.564-.156 1.104-.264 1.668h-.048c-.108-.564-.216-1.104-.336-1.668l-.648-2.748h-.936l-.624 2.748c-.12.552-.228 1.104-.324 1.668h-.048c-.084-.564-.156-1.104-.264-1.668l-.624-3.216h-1.188l1.224 5.868" style="text-align:start;line-height:125%;-inkscape-font-specification:Source Code Pro Medium"/><path d="M159.941 59.065h1.392l.588-2.688c.132-.72.204-1.236.288-1.716h.048c.108.6.192 1.152.3 1.704l.6 2.7h1.416l1.176-5.868h-1.104l-.624 3.216c-.096.564-.156 1.104-.264 1.668h-.048c-.108-.564-.216-1.104-.336-1.668l-.648-2.748h-.936l-.624 2.748c-.12.552-.228 1.104-.324 1.668h-.048c-.084-.564-.156-1.104-.264-1.668l-.624-3.216h-1.188l1.224 5.868" style="text-align:start;line-height:125%;-inkscape-font-specification:Source Code Pro Medium"/><path d="M168.348 58.093c0 .66.468 1.116 1.08 1.116.612 0 1.08-.456 1.08-1.116 0-.648-.468-1.116-1.08-1.116-.612 0-1.08.468-1.08 1.116" style="text-align:start;line-height:125%;-inkscape-font-specification:Source Code Pro Medium"/><path d="M174.067 54.157h2.628v4.908h1.188v-5.868h-3.816v.96m3.12-2.076c.504 0 .888-.324.888-.84 0-.504-.384-.852-.888-.852s-.888.348-.888.852c0 .516.384.84.888.84" style="text-align:start;line-height:125%;-inkscape-font-specification:Source Code Pro Medium"/><path d="M181.275 59.065h1.188v-4.044c.6-.624 1.044-.936 1.668-.936.888 0 1.224.48 1.224 1.5v3.48h1.188v-3.636c0-1.524-.624-2.376-1.992-2.376-.912 0-1.572.48-2.16 1.092h-.048l-.096-.948h-.972v5.868" style="text-align:start;line-height:125%;-inkscape-font-specification:Source Code Pro Medium"/><path d="M188.086 56.137c0 1.944 1.008 3.072 2.532 3.072.696 0 1.368-.396 1.836-.864h.036l.096.72h.972v-8.508h-1.188v2.184l.048 1.044c-.504-.456-.996-.732-1.704-.732-1.356 0-2.628 1.176-2.628 3.084m1.224-.012c0-1.272.756-2.076 1.668-2.076.468 0 .924.156 1.392.6v2.784c-.456.528-.948.792-1.476.792-.996 0-1.584-.756-1.584-2.1" style="text-align:start;line-height:125%;-inkscape-font-specification:Source Code Pro Medium"/><path d="M195.653 60.481l-.24.924c.216.072.516.12.804.12 1.368 0 2.088-.84 2.556-2.088l2.508-6.24h-1.128l-1.164 3.06c-.192.54-.408 1.152-.6 1.716h-.048c-.24-.576-.468-1.188-.684-1.716l-1.32-3.06h-1.188l2.676 5.832-.156.408c-.264.648-.732 1.128-1.512 1.128-.18 0-.36-.036-.504-.084" style="text-align:start;line-height:125%;-inkscape-font-specification:Source Code Pro Medium"/><path d="M202.452 59.065h1.128v-4.176c.264-.54.504-.804.864-.804.384 0 .576.3.576.9v4.08h.936v-4.176c.264-.54.516-.804.888-.804.384 0 .552.3.552.9v4.08h1.128v-4.176c0-1.176-.468-1.836-1.284-1.836-.648 0-1.044.408-1.356.996-.144-.66-.516-.996-1.092-.996-.672 0-1.02.384-1.296.912h-.036l-.096-.768h-.912v5.868" style="text-align:start;line-height:125%;-inkscape-font-specification:Source Code Pro Medium"/><path d="M209.78 56.137c0 1.932 1.416 3.072 3.18 3.072.9 0 1.668-.3 2.28-.684l-.42-.756c-.528.312-1.068.504-1.704.504-1.176 0-2.04-.684-2.112-1.836h4.416c.024-.144.06-.372.06-.612 0-1.632-.984-2.772-2.7-2.772-1.524 0-3 1.164-3 3.084m1.212-.516c.156-1.044.936-1.632 1.812-1.632 1.008 0 1.572.588 1.572 1.632h-3.384" style="text-align:start;line-height:125%;-inkscape-font-specification:Source Code Pro Medium"/><path d="M216.867 56.137c0 1.944 1.008 3.072 2.532 3.072.696 0 1.368-.396 1.836-.864h.036l.096.72h.972v-8.508h-1.188v2.184l.048 1.044c-.504-.456-.996-.732-1.704-.732-1.356 0-2.628 1.176-2.628 3.084m1.224-.012c0-1.272.756-2.076 1.668-2.076.468 0 .924.156 1.392.6v2.784c-.456.528-.948.792-1.476.792-.996 0-1.584-.756-1.584-2.1" style="text-align:start;line-height:125%;-inkscape-font-specification:Source Code Pro Medium"/><path d="M224.434 54.157h2.628v4.908h1.188v-5.868h-3.816v.96m3.12-2.076c.504 0 .888-.324.888-.84 0-.504-.384-.852-.888-.852s-.888.348-.888.852c0 .516.384.84.888.84" style="text-align:start;line-height:125%;-inkscape-font-specification:Source Code Pro Medium"/><path d="M231.498 57.517c0 1.032.852 1.692 1.98 1.692.804 0 1.62-.42 2.244-.9h.036l.096.756h.972v-3.528c0-1.548-.828-2.484-2.448-2.484-1.02 0-1.992.432-2.64.828l.444.804c.576-.336 1.272-.66 1.992-.66 1.044 0 1.428.588 1.464 1.308-2.952.228-4.14.864-4.14 2.184m1.152-.084c0-.708.684-1.164 2.988-1.344v1.392c-.6.492-1.2.78-1.824.78-.636 0-1.164-.24-1.164-.828" style="text-align:start;line-height:125%;-inkscape-font-specification:Source Code Pro Medium"/><path d="M240.301 58.093c0 .66.468 1.116 1.08 1.116.612 0 1.08-.456 1.08-1.116 0-.648-.468-1.116-1.08-1.116-.612 0-1.08.468-1.08 1.116" style="text-align:start;line-height:125%;-inkscape-font-specification:Source Code Pro Medium"/><path d="M245.648 56.137c0 1.944 1.392 3.072 2.928 3.072s2.928-1.128 2.928-3.072c0-1.956-1.392-3.084-2.928-3.084s-2.928 1.128-2.928 3.084m1.224 0c0-1.26.66-2.1 1.704-2.1s1.704.84 1.704 2.1c0 1.26-.66 2.1-1.704 2.1s-1.704-.84-1.704-2.1" style="text-align:start;line-height:125%;-inkscape-font-specification:Source Code Pro Medium"/><path d="M253.828 59.065h1.188v-3.336c.648-1.176 1.464-1.608 2.304-1.608.444 0 .672.06 1.068.192l.264-1.02c-.36-.168-.696-.24-1.152-.24-1.044 0-1.956.564-2.556 1.512h-.036l-.096-1.368h-.984v5.868" style="text-align:start;line-height:125%;-inkscape-font-specification:Source Code Pro Medium"/><path d="M261.179 59.977c0-.312.168-.6.648-.876.252.072.54.096.9.096h1.032c.84 0 1.272.132 1.272.636 0 .564-.804 1.08-2.052 1.08-1.164 0-1.8-.372-1.8-.936m-1.008.144c0 1.032 1.032 1.584 2.688 1.584 2.028 0 3.312-.936 3.312-2.052 0-1.008-.744-1.416-2.268-1.416h-1.248c-.744 0-1.164-.18-1.164-.612 0-.252.144-.444.408-.612.324.132.66.192.948.192 1.284 0 2.304-.72 2.304-2.004 0-.456-.228-.852-.468-1.104h1.464v-.9h-2.412c-.264-.096-.552-.144-.888-.144-1.272 0-2.364.804-2.364 2.112 0 .696.336 1.212.744 1.512v.048c-.444.3-.708.72-.708 1.104 0 .492.288.792.6.972v.048c-.612.348-.948.804-.948 1.272m2.676-3.684c-.672 0-1.224-.48-1.224-1.272 0-.768.552-1.272 1.224-1.272.672 0 1.224.504 1.224 1.272 0 .792-.552 1.272-1.224 1.272" style="text-align:start;line-height:125%;-inkscape-font-specification:Source Code Pro Medium"/></g></g></svg>