<svg xmlns="http://www.w3.org/2000/svg" width="499" height="481.9" viewBox="0 0 499 481.9"><g fill="none" stroke="#fff" stroke-miterlimit="10"><path d="M395.2 311.4v2h-2"/><path stroke-dasharray="3.9855,3.9855" d="M389.2 313.4h-269"/><path d="M118.2 313.4h-2v-2"/><path stroke-dasharray="3.9424,3.9424" d="M116.2 307.5v-179.4"/><path d="M116.2 126.1v-2h2"/><path stroke-dasharray="3.9855,3.9855" d="M122.2 124.1h269"/><path d="M393.2 124.1h2v2"/><path stroke-dasharray="3.9424,3.9424" d="M395.2 130.1v179.4"/></g><path fill="#fff" stroke="#fff" stroke-miterlimit="10" d="M256.2 136.9v162.5"/><circle fill="#fff" stroke="#fff" stroke-miterlimit="10" cx="256.2" cy="123.9" r="13.5"/><circle fill="#fff" stroke="#fff" stroke-miterlimit="10" cx="256.2" cy="33.9" r="13.5"/><circle fill="#fff" stroke="#fff" stroke-miterlimit="10" cx="256.2" cy="312.9" r="13.5"/><g fill="none" stroke="#fff" stroke-miterlimit="10"><path d="M260.2 64.8h-9M260.2 58.9h-9M260.2 70.5h-9M260.2 76.2h-9M260.2 81.8h-9M260.2 87.5h-9M260.2 93.2h-9M260.2 98.8h-9"/></g><g fill="none" stroke="#fff" stroke-miterlimit="10"><path d="M260.2 344.1h-9M260.2 338.1h-9M260.2 349.7h-9M260.2 355.4h-9M260.2 361.1h-9M260.2 366.7h-9M260.2 372.4h-9M260.2 378.1h-9"/></g><g fill="none" stroke="#fff" stroke-miterlimit="10"><path d="M204.3 370.8l-6.3-6.4M208.5 366.6l-6.4-6.4M212.5 362.6l-6.3-6.4M216.5 358.6l-6.3-6.4M220.5 354.6l-6.3-6.4M224.5 350.6l-6.3-6.4M228.6 346.6l-6.4-6.4M232.6 342.5l-6.4-6.3M236.6 338.5l-6.4-6.3M240.6 334.5l-6.4-6.3M200.3 374.8l-6.4-6.4M196.3 378.8l-6.4-6.4"/></g><g fill="none" stroke="#fff" stroke-miterlimit="10"><path d="M314.2 364.4l-6.4 6.4M310 360.2l-6.3 6.4M306 356.2l-6.4 6.4M302 352.2l-6.4 6.4M298 348.2l-6.4 6.4M294 344.2l-6.4 6.4M290 340.2l-6.4 6.4M286 336.2l-6.4 6.3M282 332.2l-6.4 6.3M277.9 328.2l-6.3 6.3M318.2 368.4l-6.3 6.4M322.2 372.4l-6.3 6.4"/></g><g fill="none" stroke="#fff" stroke-miterlimit="10"><path d="M224.2 389.4h63v45h-63zM224.2 398.4h63M233.2 389.4v9"/></g><g fill="none" stroke="#fff" stroke-miterlimit="10"><path d="M314.2 389.4h63v45h-63zM314.2 398.4h63M323.2 389.4v9"/></g><g fill="none" stroke="#fff" stroke-miterlimit="10"><path d="M134.2 389.4h63v45h-63zM134.2 398.4h63M143.2 389.4v9"/></g><path fill="#fff" d="M263 288.1l-6.8-13.6-6.8 13.6zM263 163.9l-6.8-13.6-6.8 13.6z"/></svg>