<svg xmlns="http://www.w3.org/2000/svg" width="499" height="481.9" viewBox="0 0 499 481.9"><path fill="none" stroke="#fff" stroke-miterlimit="10" d="M247.3 307.5l-42.9-42.8"/><g fill="none" stroke="#fff" stroke-miterlimit="10"><path d="M394.6 312.9v2h-2"/><path stroke-dasharray="3.9855,3.9855" d="M388.6 314.9h-269"/><path d="M117.6 314.9h-2v-2"/><path stroke-dasharray="3.9424,3.9424" d="M115.6 309v-179.4"/><path d="M115.6 127.6v-2h2"/><path stroke-dasharray="3.9855,3.9855" d="M121.5 125.6h269.1"/><path d="M392.6 125.6h2v2"/><path stroke-dasharray="3.9424,3.9424" d="M394.6 131.6v179.4"/></g><path fill="none" stroke="#fff" stroke-miterlimit="10" d="M152.9 264.7l-25.7-44.9 25.7-44.8h51.5l25.8 44.8-25.8 44.9z"/><circle fill="#fff" stroke="#fff" stroke-miterlimit="10" cx="255.5" cy="125.4" r="13.5"/><circle fill="#fff" stroke="#fff" stroke-miterlimit="10" cx="255.5" cy="35.4" r="13.5"/><circle fill="#fff" stroke="#fff" stroke-miterlimit="10" cx="255.5" cy="314.4" r="13.5"/><g fill="none" stroke="#fff" stroke-miterlimit="10"><path d="M259.6 66.3h-9M259.6 60.4h-9M259.6 72h-9M259.6 77.7h-9M259.6 83.3h-9M259.6 89h-9M259.6 94.7h-9M259.6 100.3h-9"/></g><g fill="none" stroke="#fff" stroke-miterlimit="10"><path d="M259.6 345.6h-9M259.6 339.6h-9M259.6 351.2h-9M259.6 356.9h-9M259.6 362.6h-9M259.6 368.2h-9M259.6 373.9h-9M259.6 379.6h-9"/></g><g fill="none" stroke="#fff" stroke-miterlimit="10"><path d="M203.7 372.3l-6.4-6.4M207.8 368.1l-6.3-6.4M211.9 364.1l-6.4-6.4M215.9 360.1l-6.4-6.4M219.9 356.1l-6.4-6.4M223.9 352.1l-6.4-6.4M227.9 348.1l-6.4-6.4M231.9 344l-6.4-6.3M235.9 340l-6.4-6.3M239.9 336l-6.3-6.3M199.7 376.3l-6.4-6.4M195.6 380.3l-6.3-6.4"/></g><g fill="none" stroke="#fff" stroke-miterlimit="10"><path d="M313.5 365.9l-6.3 6.4M309.4 361.7l-6.4 6.4M305.4 357.7l-6.4 6.4M301.3 353.7l-6.3 6.4M297.3 349.7l-6.3 6.4M293.3 345.7l-6.3 6.4M289.3 341.7l-6.3 6.4M285.3 337.7l-6.4 6.3M281.3 333.7l-6.4 6.3M277.3 329.7l-6.4 6.3M317.6 369.9l-6.4 6.4M321.6 373.9l-6.4 6.4"/></g><g fill="none" stroke="#fff" stroke-miterlimit="10"><path d="M223.6 390.9h63v45h-63zM223.6 399.9h63M232.6 390.9v9"/></g><g fill="none" stroke="#fff" stroke-miterlimit="10"><path d="M313.6 390.9h63v45h-63zM313.6 399.9h63M322.6 390.9v9"/></g><g fill="none" stroke="#fff" stroke-miterlimit="10"><path d="M133.6 390.9h63v45h-63zM133.6 399.9h63M142.6 390.9v9"/></g><path fill="#fff" d="M367.86 422.277l4.738 4.738-4.738 4.738-4.738-4.738zM277.745 422.314l4.738 4.738-4.738 4.738-4.738-4.738zM187.856 422.291l4.738 4.738-4.738 4.738-4.738-4.738z"/><path fill="none" stroke="#fff" stroke-miterlimit="10" d="M164.3 221.4l2.5 7.8M173.7 208.1l-6.6 4.9M192.9 221.4l-2.5 7.8M183.6 208.1l6.6 4.9M174.5 234.9l8.3.1M173.8 231.1l16.6-11.3M170.4 229.1l6-19.2M183.6 231.1l-16.7-11.3M186.9 229.1l-6-19.2M167.7 216.4h22"/><path fill="#fff" d="M188.646 230.686l4.172 4.172-4.172 4.172-4.172-4.172zM194.756 211.987l4.172 4.172-4.172 4.172-4.172-4.172zM168.677 230.785l4.242 4.243-4.243 4.242-4.242-4.243zM162.47 211.953l4.243 4.243-4.243 4.243-4.243-4.243zM178.541 200.655l4.172 4.172-4.172 4.172-4.172-4.172z"/></svg>