<svg xmlns="http://www.w3.org/2000/svg" width="499" height="593" viewBox="0 0 499 593"><path fill="none" stroke="#fff" stroke-miterlimit="10" d="M217.2 300.9l-42.9-42.9"/><g fill="none" stroke="#fff" stroke-miterlimit="10"><path d="M366.9 304.4v6h-6"/><path stroke-dasharray="11.6087,11.6087" d="M349.3 310.4h-249.5"/><path d="M93.9 310.4h-6v-6"/><path stroke-dasharray="11.8194,11.8194" d="M87.9 292.6v-159.5"/><path d="M87.9 127.1v-6h6"/><path stroke-dasharray="11.6087,11.6087" d="M105.6 121.1h249.5"/><path d="M360.9 121.1h6v6"/><path stroke-dasharray="11.8194,11.8194" d="M366.9 139v159.5"/></g><path fill="#fff" stroke="#fff" stroke-miterlimit="10" d="M223.4 133.9v162.5"/><g fill="none" stroke="#fff" stroke-miterlimit="10"><path d="M232.4 188.2v1.5"/><path stroke-dasharray="2.8868,3.8491" d="M232.4 193.5v45.2"/><path d="M232.4 240.7v1.5"/></g><path fill="none" stroke="#fff" stroke-miterlimit="10" d="M279 260.2l-25.8-44.9 25.8-44.8h51.5l25.7 44.8-25.7 44.9zM125.3 260.2l-25.7-44.9 25.7-44.8h51.5l25.8 44.8-25.8 44.9zM267.3 235.2l-34.9 19.9v50.1M265.2 193.9l-32.8-18.4v-50.3"/><circle fill="#fff" stroke="#fff" stroke-miterlimit="10" cx="227.9" cy="120.9" r="13.5"/><circle fill="#fff" stroke="#fff" stroke-miterlimit="10" cx="227.9" cy="30.9" r="13.5"/><circle fill="#fff" stroke="#fff" stroke-miterlimit="10" cx="227.9" cy="309.9" r="13.5"/><g fill="none" stroke="#fff" stroke-miterlimit="10"><path d="M231.9 61.8h-9M231.9 55.9h-9M231.9 67.5h-9M231.9 73.2h-9M231.9 78.8h-9M231.9 84.5h-9M231.9 90.2h-9M231.9 95.8h-9"/></g><g fill="none" stroke="#fff" stroke-miterlimit="10"><path d="M231.9 341.1h-9M231.9 335.1h-9M231.9 346.7h-9M231.9 352.4h-9M231.9 358.1h-9M231.9 363.7h-9M231.9 369.4h-9M231.9 375.1h-9"/></g><g fill="none" stroke="#fff" stroke-miterlimit="10"><path d="M176 367.8l-6.3-6.4M180.2 363.6l-6.3-6.4M184.2 359.6l-6.3-6.4M188.2 355.6l-6.3-6.4M192.3 351.6l-6.4-6.4M196.3 347.6l-6.4-6.4M200.3 343.6l-6.4-6.4M204.3 339.5l-6.4-6.3M208.3 335.5l-6.4-6.3M212.3 331.5l-6.4-6.3M172 371.8l-6.3-6.4M168 375.8l-6.3-6.4"/></g><g fill="none" stroke="#fff" stroke-miterlimit="10"><path d="M285.9 361.4l-6.3 6.4M281.7 357.2l-6.3 6.4M277.7 353.2l-6.3 6.4M273.7 349.2l-6.3 6.4M269.7 345.2l-6.3 6.4M265.7 341.2l-6.4 6.4M261.7 337.2l-6.4 6.4M257.7 333.2l-6.4 6.3M253.7 329.2l-6.4 6.3M249.7 325.2l-6.4 6.3M289.9 365.4l-6.3 6.4M294 369.4l-6.4 6.4"/></g><g fill="none" stroke="#fff" stroke-miterlimit="10"><path d="M195.9 386.4h63v45h-63zM195.9 395.4h63M204.9 386.4v9"/></g><g fill="none" stroke="#fff" stroke-miterlimit="10"><path d="M285.9 386.4h63v45h-63zM285.9 395.4h63M294.9 386.4v9"/></g><path fill="#fff" d="M262.6 184.4l7.8 12.3-14.5.1zM271.1 241.2l-14.6.2 7.6-12.5zM240.3 151.1l-7.9 14.8v-14.9zM215.4 166l7.9-14.9v14.9zM240.3 263.9l-7.9 14.9v-15zM215.4 279.6l7.9-14.8v14.9z"/><g fill="none" stroke="#fff" stroke-miterlimit="10"><path d="M105.9 386.4h63v45h-63zM105.9 395.4h63M114.9 386.4v9"/></g><path fill="#fff" stroke="#fff" stroke-miterlimit="10" d="M316.1 232.2h-25.5v-37h18.1l7.4 7.5z"/><g fill="none" stroke="#fff" stroke-width="2" stroke-miterlimit="10"><path d="M308.7 216.8h-7.4M305 213.1l-3.7 3.7 3.7 3.7"/></g><g fill="#fff"><path d="M309 202.3v-5.7l5.7 5.7zM309.5 197.9l4 4h-4v-4m-1-2.5v7.4h7.4l-7.4-7.4z"/></g><path fill="#fff" d="M316.148 208.495l8.414 8.414-8.414 8.414-8.414-8.414zM340.256 417.788l4.738 4.738-4.738 4.738-4.738-4.738zM250.141 417.825l4.738 4.738-4.738 4.738-4.738-4.738zM160.251 417.802l4.738 4.738-4.738 4.738-4.738-4.738z"/><path fill="none" stroke="#fff" stroke-miterlimit="10" d="M137.3 214.9l2.5 7.9M146.6 201.6l-6.6 4.9M165.9 214.9l-2.5 7.9M156.5 201.6l6.6 4.9M147.5 228.5h8.2M146.7 224.7l16.6-11.4M143.4 222.6l5.9-19.1M156.5 224.7l-16.6-11.4M159.8 222.6l-5.9-19.1M140.6 209.9h22"/><path fill="#fff" d="M161.574 224.155l4.172 4.172-4.172 4.172-4.172-4.172zM167.683 205.457l4.172 4.172-4.172 4.172-4.172-4.172zM141.605 224.253l4.242 4.243-4.243 4.242-4.242-4.243zM135.468 205.493l4.243 4.243-4.243 4.243-4.243-4.243zM151.469 194.124l4.172 4.172-4.172 4.172-4.172-4.172z"/></svg>