<svg xmlns="http://www.w3.org/2000/svg" width="499" height="481.9" viewBox="0 0 499 481.9"><g fill="none" stroke="#fff" stroke-miterlimit="10"><path d="M392.7 312.9v2h-2"/><path stroke-dasharray="3.9855,3.9855" d="M386.7 314.9h-269"/><path d="M115.7 314.9h-2v-2"/><path stroke-dasharray="3.9424,3.9424" d="M113.7 309v-179.4"/><path d="M113.7 127.6v-2h2"/><path stroke-dasharray="3.9855,3.9855" d="M119.7 125.6h269"/><path d="M390.7 125.6h2v2"/><path stroke-dasharray="3.9424,3.9424" d="M392.7 131.6v179.4"/></g><g fill="none" stroke="#fff" stroke-miterlimit="10"><path d="M253.7 183.5v1.5"/><path stroke-dasharray="3.1007,4.1343" d="M253.7 189.2v63"/><path d="M253.7 254.3v1.5"/></g><path fill="none" stroke="#fff" stroke-miterlimit="10" d="M304.8 264.7l-25.8-44.9 25.8-44.8h51.5l25.7 44.8-25.7 44.9zM293.1 239.7l-39.3 22.2v47.8M291 198.4l-37.2-20.9v-47.8"/><circle fill="#fff" stroke="#fff" stroke-miterlimit="10" cx="253.7" cy="125.4" r="13.5"/><circle fill="#fff" stroke="#fff" stroke-miterlimit="10" cx="253.7" cy="35.4" r="13.5"/><circle fill="#fff" stroke="#fff" stroke-miterlimit="10" cx="253.7" cy="314.4" r="13.5"/><g fill="none" stroke="#fff" stroke-miterlimit="10"><path d="M257.7 66.3h-9M257.7 60.4h-9M257.7 72h-9M257.7 77.7h-9M257.7 83.3h-9M257.7 89h-9M257.7 94.7h-9M257.7 100.3h-9"/></g><g fill="none" stroke="#fff" stroke-miterlimit="10"><path d="M257.7 345.6h-9M257.7 339.6h-9M257.7 351.2h-9M257.7 356.9h-9M257.7 362.6h-9M257.7 368.2h-9M257.7 373.9h-9M257.7 379.6h-9"/></g><g fill="none" stroke="#fff" stroke-miterlimit="10"><path d="M201.8 372.3l-6.3-6.4M206 368.1l-6.3-6.4M210 364.1l-6.3-6.4M214 360.1l-6.3-6.4M218 356.1l-6.3-6.4M222.1 352.1l-6.4-6.4M226.1 348.1l-6.4-6.4M230.1 344l-6.4-6.3M234.1 340l-6.4-6.3M238.1 336l-6.4-6.3M197.8 376.3l-6.3-6.4M193.8 380.3l-6.4-6.4"/></g><g fill="none" stroke="#fff" stroke-miterlimit="10"><path d="M311.7 365.9l-6.3 6.4M307.5 361.7l-6.3 6.4M303.5 357.7l-6.3 6.4M299.5 353.7l-6.4 6.4M295.5 349.7l-6.4 6.4M291.5 345.7l-6.4 6.4M287.5 341.7l-6.4 6.4M283.5 337.7l-6.4 6.3M279.5 333.7l-6.4 6.3M275.5 329.7l-6.4 6.3M315.7 369.9l-6.3 6.4M319.7 373.9l-6.3 6.4"/></g><g fill="none" stroke="#fff" stroke-miterlimit="10"><path d="M221.7 390.9h63v45h-63zM221.7 399.9h63M230.7 390.9v9"/></g><g fill="none" stroke="#fff" stroke-miterlimit="10"><path d="M311.7 390.9h63v45h-63zM311.7 399.9h63M320.7 390.9v9"/></g><path fill="#fff" d="M289.8 189.8l7.8 12.2-14.5.2zM299.4 244.3l-14.5.1 7.6-12.4z"/><g fill="none" stroke="#fff" stroke-miterlimit="10"><path d="M131.7 390.9h63v45h-63zM131.7 399.9h63M140.7 390.9v9"/></g><path fill="#fff" stroke="#fff" stroke-miterlimit="10" d="M343.6 236.7h-25.5v-37h18.1l7.4 7.5z"/><g fill="none" stroke="#000" stroke-width="2" stroke-miterlimit="10"><path d="M336.2 221.3h-7.4M332.5 217.6l-3.7 3.7 3.7 3.7"/></g><path d="M336.5 206.8v-5.7l5.6 5.7z"/><path fill="#fff" d="M337 202.4l4 4h-4v-4m-1-2.5v7.4h7.4l-7.4-7.4z"/><path stroke="#fff" stroke-miterlimit="10" d="M343.643 213.005l8.414 8.414-8.414 8.414-8.414-8.414z"/><path fill="#fff" d="M366.051 422.297l4.738 4.738-4.738 4.738-4.738-4.738zM275.866 422.264l4.738 4.738-4.738 4.738-4.738-4.738zM186.047 422.311l4.738 4.738-4.738 4.738-4.738-4.738zM246.8 152.4l6.8 13.6 6.8-13.6zM246.8 276.8l6.8 13.6 6.8-13.6z"/></svg>